<?xml version="1.0" encoding="UTF-8"?>
<svg id="Layer_1" xmlns="http://www.w3.org/2000/svg" version="1.1" viewBox="0 0 276 130">
  <!-- Generator: Adobe Illustrator 29.3.1, SVG Export Plug-In . SVG Version: 2.1.0 Build 151)  -->
  <defs>
    <style>
      .st0 {
        fill-rule: evenodd;
      }

      .st0, .st1 {
        fill: #fff;
      }

      .st2 {
        fill: #0079c2;
      }
    </style>
  </defs>
  <path class="st2" d="M0,0h276v130H0V0Z"/>
  <path class="st0" d="M60,90.3c-1.2.8-2.8,1.6-4.2,2.2h13.9v-13.9c-.5,1.2-1.4,3.1-2.2,4.2l-2.8-2.8c-.9,1.5-2,2.9-3.3,4.2-1.3,1.3-2.7,2.4-4.2,3.3,0,0,2.8,2.8,2.8,2.8ZM60.2,75.5c-.7,1.6-1.8,3.1-3.1,4.4s-2.8,2.4-4.4,3.1l3.8,3.8c1.5-.9,3-2,4.3-3.3s2.4-2.7,3.3-4.2c0,0-3.9-3.8-3.9-3.8ZM68.9,74.4c.8-3.4.8-7.1,0-10.6h-1.9c.9,3.5.9,7.2,0,10.6h1.9ZM66,74.4c.9-3.2.9-7.1,0-10.6h-5.3c1.3,3.4,1.3,7.2,0,10.6h5.3ZM67.5,55.3c.7,1.1,1.6,2.8,2.2,4.2v-13.9h-13.9c1.4.6,2.7,1.3,4.2,2.2l-2.8,2.8c1.5.9,2.9,1.9,4.2,3.3,1.4,1.4,2.4,2.7,3.3,4.2,0,0,2.8-2.8,2.8-2.8ZM52.7,55.1c1.6.7,3.1,1.8,4.4,3.1,1.3,1.3,2.2,2.7,3.1,4.4l3.8-3.8c-.9-1.5-2-3-3.2-4.2s-2.7-2.4-4.2-3.3c0,0-3.9,3.8-3.9,3.8ZM51.6,46.4c-3.5-.8-7.1-.8-10.6,0v1.9c3.5-.9,7.1-.9,10.6,0,0,0,0-1.9,0-1.9ZM51.6,49.3c-3.5-.9-7.1-.9-10.6,0v5.4c3.4-1.3,7.2-1.3,10.6,0,0,0,0-5.4,0-5.4ZM27.8,58.1c.9-1.5,2-2.9,3.3-4.2s2.7-2.4,4.2-3.3l-2.8-2.8c1.3-.9,2.7-1.6,4.2-2.2h-13.9v13.9c.6-1.5,1.3-2.9,2.2-4.2l2.8,2.8ZM36.1,51.4c-1.5.9-3,2-4.3,3.3s-2.4,2.7-3.2,4.3l3.8,3.8c.7-1.6,1.8-3.1,3.1-4.4,1.3-1.3,2.8-2.3,4.4-3.1,0,0-3.8-3.9-3.8-3.9ZM26.5,63.7c-.9,3.5-.9,7.2,0,10.6h5.3c-1.3-3.4-1.3-7.2,0-10.6,0,0-5.3,0-5.3,0ZM23.6,63.7c-.8,3.5-.8,7.1,0,10.6h1.9c-.9-3.4-.9-7.1,0-10.6,0,0-1.9,0-1.9,0ZM25.1,82.8c-.9-1.4-1.6-2.8-2.2-4.2v13.9h13.9c-1.5-.6-2.9-1.3-4.2-2.2l2.8-2.8c-1.5-.9-2.9-2-4.2-3.3s-2.4-2.7-3.3-4.2c0,0-2.8,2.8-2.8,2.8ZM28.6,79.2c.9,1.5,2,3,3.3,4.3s2.7,2.4,4.2,3.2l3.8-3.8c-1.6-.7-3.1-1.8-4.4-3.1-1.3-1.3-2.3-2.8-3.1-4.4l-3.8,3.8ZM41,83.4c3.4,1.3,7.2,1.2,10.6,0v5.3c-3.5,1-7.1.9-10.6,0v-5.3ZM41,89.8c3.5.9,7.1.9,10.6,0v1.9c-3.5.8-7.1.8-10.6,0v-1.9Z"/>
  <path class="st1" d="M80.6,45.5h7.1l23.5,32.6v-32.6h7.6v47.1h-6.5l-24.1-33.5v33.5h-7.6v-47.1ZM140.7,68.8h6.6c5.7,0,9.3-3.1,9.3-7.9h0c0-5.2-3.5-7.9-9.4-7.9h-11.6v39.6h-8v-47.1h20.2c5.7,0,10.2,1.7,13.1,4.7,2.4,2.6,3.8,6.1,3.8,10.2h0c0,7.8-4.5,12.5-10.8,14.4l12.3,17.8h-9.4l-16.1-23.8h0ZM173,45.5h35.9v7.4h-26.9v12.3h22v7.4h-22v12.7h27.3v7.4h-36.3v-47.2ZM218.6,45.5h9v39.6h24.9v7.5h-33.8v-47.1q-.1,0,0,0Z"/>
</svg>