<?xml version="1.0" encoding="UTF-8"?><svg id="a" xmlns="http://www.w3.org/2000/svg" viewBox="0 0 67.44 67.11"><defs><style>.b{fill:#ffca28;}.c{fill:#e81e25;}.d{fill:#5bc9e1;}.e{fill:#4d4d4d;stroke:#000;stroke-miterlimit:10;stroke-width:2px;}</style></defs><g><path class="d" d="M34.98,25.84c-.44,0-.88-.02-1.32-.07H1.97c-.82,0,0-.66,0-1.48s-.82-1.48,0-1.48h31.94c5.03,.59,9.59-3.02,10.17-8.04,.45-3.86-2.33-7.36-6.18-7.81-1.41-.16-2.81,.23-3.93,1.12-1.12,.89-1.82,2.15-1.99,3.57-.12,1.06,.17,2.09,.83,2.93,.66,.83,1.6,1.36,2.66,1.48,.81,.09,1.39,.83,1.3,1.64-.09,.81-.82,1.39-1.64,1.3-1.84-.21-3.48-1.13-4.63-2.58s-1.66-3.26-1.45-5.1c.26-2.2,1.35-4.17,3.09-5.54,1.74-1.38,3.9-1.99,6.1-1.74,5.47,.64,9.41,5.61,8.78,11.08-.72,6.17-5.97,10.73-12.04,10.73Z"/><path class="c" d="M35.46,56.33c-4.1,0-7.65-2.79-8.15-6.57-.2-1.56,.24-3.12,1.24-4.39,1.13-1.42,2.87-2.35,4.78-2.55,.76-.08,1.45,.48,1.53,1.24,.08,.76-.48,1.45-1.24,1.53-1.17,.12-2.22,.67-2.89,1.51-.53,.68-.77,1.49-.67,2.3,.34,2.58,3.04,4.42,6.03,4.11,2.04-.21,3.88-1.18,5.04-2.65,.97-1.22,1.39-2.71,1.2-4.18-.58-4.44-5.2-7.63-10.28-7.1H1.97c-.77,0,0-.62,0-1.38s-.77-1.39,0-1.39H31.85c6.55-.64,12.48,3.62,13.26,9.52,.29,2.22-.34,4.45-1.78,6.27-1.63,2.06-4.16,3.4-6.94,3.69-.31,.03-.62,.05-.93,.05Z"/><path class="b" d="M57.59,32.91c-.92,0-3.59,.03-3.68-.06H1.97c-.82,0,0-.66,0-1.48s-.82-1.48,0-1.48H54.31s4.64,.34,6.48-.9c2.02-1.35,3.35-3.61,3.65-6.18,.22-1.87-.31-3.71-1.47-5.19-1.17-1.48-2.84-2.41-4.71-2.62-1.42-.16-2.81,.23-3.93,1.12-1.12,.89-1.82,2.15-1.99,3.57-.12,1.06,.17,2.09,.83,2.93,.66,.83,1.6,1.36,2.66,1.48,.81,.09,1.39,.83,1.3,1.64-.09,.81-.82,1.39-1.64,1.3-3.79-.44-6.52-3.89-6.08-7.68,.53-4.54,4.65-7.81,9.19-7.28,5.47,.64,9.41,5.61,8.78,11.08-.4,3.43-2.2,6.45-4.94,8.29-1.74,1.16-2.81,1.45-4.85,1.45Z"/></g><line class="e" x1="1" x2="1" y2="67.11"/></svg>