<svg xmlns="http://www.w3.org/2000/svg" viewBox="0 0 45.682 47.1">
  <path fill="#1b39b2" d="M19.482.543a1.15 1.15 0 0 0-.2-.043 1.347 1.347 0 0 0-1.3 1.4v1.3h-1.4a.9.9 0 0 0 0 1.8h1.4v2.9h-1.4v-.7a.9.9 0 1 0-1.8 0V8h-.1c-.8 0-1.4.5-1.4 1 0 .6.6 1 1.4 1h.1v.8a.9.9 0 0 0 1.8 0V10h1.4v2.8h-1.4a.9.9 0 1 0 0 1.8h1.4v4.8a2.506 2.506 0 0 0-.7.4l-5-3.1.8-1.5a1.091 1.091 0 0 0-.3-1.3.856.856 0 0 0-1.2.3l-.8 1.5-2.3-1.4.7-1.2.7.4a.856.856 0 0 0 1.2-.3 1.091 1.091 0 0 0-.3-1.3l-.7-.4.3-.5c.4-.7.4-1.6-.1-1.9-.4-.3-1.1.1-1.5.8l-.4.6-.6-.3a.856.856 0 0 0-1.2.3 1.091 1.091 0 0 0 .3 1.3l.6.3-.7 1.2-2.3-1.5.8-1.5a1.091 1.091 0 0 0-.3-1.3.856.856 0 0 0-1.2.3l-.8 1.5-1.1-.7a1.132 1.132 0 0 0-1.7.5 1.429 1.429 0 0 0 .5 1.9l1.1.7-.8 1.4a1.091 1.091 0 0 0 .3 1.3.856.856 0 0 0 1.2-.3l.7-1.3 2.3 1.5-.7 1.3-.6-.5a.856.856 0 0 0-1.2.3 1.091 1.091 0 0 0 .3 1.3l.7.4v.1c-.4.7-.4 1.6.1 1.9.4.3 1.1-.1 1.5-.8v-.1l.6.4a.856.856 0 0 0 1.2-.3 1.091 1.091 0 0 0-.3-1.3l-.6-.4.7-1.3 2.3 1.4-.7 1.3a1.091 1.091 0 0 0 .3 1.3.856.856 0 0 0 1.2-.3l.7-1.3 4.8 3a5.853 5.853 0 0 0-.2 1.3 1.268 1.268 0 0 0 .1.6l-3.8 3.3-1-1.4a.751.751 0 0 0-1.2-.1.935.935 0 0 0-.1 1.3l1 1.4-2 1.8-.8-1.1.6-.5a.935.935 0 0 0 .1-1.3.815.815 0 0 0-1.259-.139l-.64.434-.5-.7c-.6-.6-1.162-.891-1.606-.513a1.361 1.361 0 0 0 .105 1.818l.3.5-.5.4a1.048 1.048 0 0 0-.1 1.3.751.751 0 0 0 1.2.1l.5-.4.8 1.1-2.1 1.8-1-1.4a.751.751 0 0 0-1.2-.1.935.935 0 0 0-.1 1.3l1 1.4-1 .8a1.513 1.513 0 0 0-.2 1.9 1.189 1.189 0 0 0 1.8.2l1-.8.9 1.2a.751.751 0 0 0 1.2.1.935.935 0 0 0 .1-1.3l-.9-1.2 2.1-1.7.9 1.2-.6.5a1.048 1.048 0 0 0-.1 1.3.751.751 0 0 0 1.2.1l.6-.5.1.1c.5.7 1.2.9 1.6.6s.3-1.2-.2-1.8l-.1-.1.6-.5a.935.935 0 0 0 .1-1.3.751.751 0 0 0-1.2-.1l-.6.5-.9-1.2 2-1.8.9 1.2a.751.751 0 0 0 1.2.1.935.935 0 0 0 .1-1.3l-.9-1.2 3.4-2.9a4.2 4.2 0 0 0 1.4.9v5.5h-1.7a.9.9 0 1 0 0 1.8h1.7v2.9h-1.3v-.9a.9.9 0 0 0-1.8 0v.9h-.6c-.8 0-1.4.5-1.4 1s.7 1 1.4 1h.6v.7a.9.9 0 0 0 1.8 0v-.7h1.3v2.9h-1.7a.9.9 0 0 0 0 1.8h1.7v1.4a1.347 1.347 0 0 0 1.3 1.4 1.181 1.181 0 0 0 .3-.064Z"/>
  <path fill="#930318" d="m33.582 26.4 12.1-3.1-12.1-3 8.9-8.6-11.9 3.4 3.4-11.9-8.6 8.9-3.1-12.1v46.7l3.1-12.1 8.6 8.9-3.4-11.9 11.9 3.4-8.9-8.6z"/>
</svg>
