<?xml version="1.0" encoding="UTF-8"?>
<svg id="Layer_1" xmlns="http://www.w3.org/2000/svg" version="1.1" viewBox="0 0 32.3 25.9">
  <!-- Generator: Adobe Illustrator 29.0.0, SVG Export Plug-In . SVG Version: 2.1.0 Build 186)  -->
  <defs>
    <style>
      .st0 {
        fill: #626e73;
      }
    </style>
  </defs>
  <path class="st0" d="M17.5,10.9c-.2,0-.4,0-.6,0H2.1c-.4,0-.6-.3-.6-.6s.3-.6.6-.6h14.9c1.1.1,2.1-.2,2.9-.8.8-.7,1.4-1.6,1.5-2.7,0-.8-.1-1.6-.6-2.3-.5-.6-1.2-1.1-2.1-1.1-1.3-.1-2.4.8-2.6,2,0,.5,0,.9.4,1.3.3.4.7.6,1.2.6.4,0,.6.4.6.7s-.4.6-.7.6c-.8,0-1.5-.5-2-1.1s-.7-1.4-.6-2.2c.1-1,.6-1.8,1.3-2.4.8-.6,1.7-.9,2.7-.8,1.2.1,2.2.7,2.9,1.6s1,2.1.9,3.2c-.2,1.4-.9,2.7-2,3.5-.9.7-2.1,1.1-3.3,1.1Z"/>
  <path class="st0" d="M17.7,24.2c-1.8,0-3.3-1.2-3.6-2.9,0-.7.1-1.4.5-1.9.5-.6,1.3-1,2.1-1.1.3,0,.6.2.7.5,0,.3-.2.6-.5.7-.5,0-1,.3-1.3.7-.2.3-.3.7-.3,1,.1,1.1,1.3,1.9,2.6,1.8.9,0,1.7-.5,2.2-1.2.4-.5.6-1.2.5-1.8-.3-1.9-2.3-3.3-4.5-3.1h0s-14,0-14,0c-.3,0-.6-.3-.6-.6s.3-.6.6-.6h14c2.9-.3,5.4,1.6,5.8,4.2.1,1-.1,1.9-.8,2.7-.7.9-1.8,1.5-3,1.6-.1,0-.3,0-.4,0Z"/>
  <path class="st0" d="M27,14.1c-.4,0-3.2,0-3.6-.2H2.1c-.4,0-.6-.3-.6-.6s.3-.6.6-.6h23.9s1.9.1,2.7-.4c.9-.6,1.5-1.6,1.6-2.7.2-1.7-1-3.2-2.7-3.4-.6,0-1.2.1-1.7.5-.5.4-.8.9-.9,1.6,0,.5,0,.9.4,1.3s.7.6,1.2.6c.4,0,.6.4.6.7,0,.4-.4.6-.7.6-1.7-.2-2.8-1.7-2.7-3.4.2-2,2-3.4,4-3.2,2.4.3,4.1,2.4,3.8,4.8-.2,1.5-1,2.8-2.2,3.6-.8.5-1.6.8-2.5.8Z"/>
</svg>