<?xml version="1.0" encoding="UTF-8"?>
<svg id="Layer_1" xmlns="http://www.w3.org/2000/svg" xmlns:xlink="http://www.w3.org/1999/xlink" version="1.1" viewBox="0 0 112 53.2">
  <!-- Generator: Adobe Illustrator 29.0.0, SVG Export Plug-In . SVG Version: 2.1.0 Build 186)  -->
  <defs>
    <style>
      .st0 {
        fill: #a33123;
      }
    </style>
  </defs>
  <g>
    <g>
      <path class="st0" d="M563.9,368h74.8c1.6,0,3-1.8,3-4v-9.5h-80.7v9.5c0,2.2,1.3,4,3,4Z"/>
      <path class="st0" d="M641.7,337.5c0-2.2-1.3-4-3-4h-74.8c-1.6,0-3,1.8-3,4v14.8h80.7v-14.8ZM633.4,349.2h-64.1v-1.6h64.1v1.6ZM633.4,344.4h-64.1v-1.6h64.1v1.6ZM633.4,339.6h-64.1v-1.6h64.1v1.6Z"/>
    </g>
    <path class="st0" d="M673.4,332.5h-18.1c-2.8,0-5,2.2-5,5v25.2c0,2.8,2.2,5,5,5h18.1c2.8,0,5-2.2,5-5v-25.2c0-2.8-2.2-5-5-5ZM673,361.9h-6.7v-1.8h6.7v1.8ZM673,354.2h-6.7v-1.8h6.7v1.8ZM673,346.5h-6.7v-1.8h6.7v1.8ZM671.8,341.7h-15c-1.3,0-2.3-1-2.3-2.3s1-2.3,2.3-2.3h15c1.3,0,2.3,1,2.3,2.3s-1,2.3-2.3,2.3ZM662.7,362h-6.7v-1.8h6.7v1.8ZM662.7,354.3h-6.7v-1.8h6.7v1.8ZM662.7,346.5h-6.7v-1.8h6.7v1.8Z"/>
  </g>
  <g>
    <g>
      <path class="st0" d="M563.9,368h74.8c1.6,0,3-1.8,3-4v-9.5h-80.7v9.5c0,2.2,1.3,4,3,4Z"/>
      <path class="st0" d="M641.7,337.5c0-2.2-1.3-4-3-4h-74.8c-1.6,0-3,1.8-3,4v14.8h80.7v-14.8ZM633.4,349.2h-64.1v-1.6h64.1v1.6ZM633.4,344.4h-64.1v-1.6h64.1v1.6ZM633.4,339.6h-64.1v-1.6h64.1v1.6Z"/>
    </g>
    <path class="st0" d="M673.4,332.5h-18.1c-2.8,0-5,2.2-5,5v25.2c0,2.8,2.2,5,5,5h18.1c2.8,0,5-2.2,5-5v-25.2c0-2.8-2.2-5-5-5ZM673,361.9h-6.7v-1.8h6.7v1.8ZM673,354.2h-6.7v-1.8h6.7v1.8ZM673,346.5h-6.7v-1.8h6.7v1.8ZM671.8,341.7h-15c-1.3,0-2.3-1-2.3-2.3s1-2.3,2.3-2.3h15c1.3,0,2.3,1,2.3,2.3s-1,2.3-2.3,2.3ZM662.7,362h-6.7v-1.8h6.7v1.8ZM662.7,354.3h-6.7v-1.8h6.7v1.8ZM662.7,346.5h-6.7v-1.8h6.7v1.8Z"/>
  </g>
  <g id="boilericon">
    <a xlink:href="#/boiler/basics">
      <path id="boiler" class="st0" d="M96.3,13.8v3.6h-6c-.7-8.5-6.9-15.2-14.6-15.2H18.4c-5.2,0-9.9,3.1-12.5,8h-3.6v22.8h3.6c2.6,4.7,7.2,8,12.5,8v9.9h9.1v-9.9h35.5v9.9h9.1v-9.9h3.6c7.4,0,13.6-6.4,14.6-14.7h6v2.8h13.3v-15.2h-13.4Z"/>
    </a>
  </g>
</svg>