<?xml version="1.0" encoding="UTF-8"?>
<svg id="Layer_1" xmlns="http://www.w3.org/2000/svg" xmlns:xlink="http://www.w3.org/1999/xlink" version="1.1" viewBox="0 0 94 53">
  <!-- Generator: Adobe Illustrator 29.0.0, SVG Export Plug-In . SVG Version: 2.1.0 Build 186)  -->
  <defs>
    <style>
      .st0 {
        fill: #1179bf;
      }
    </style>
  </defs>
  <a xlink:href="#/chiller/basics">
    <g id="a4682">
      <path id="chiller" class="st0" d="M92.2,31.2v-3.3h-4.6v-7.2h-2.2v4.7c-1.3-2.1-3.7-3.7-6.5-4.8-.3-10.6-8.9-14.4-14.7-14.4h-23.5V1.3H7.8v18.1h32.9v-4.9h23.5c.5,0,5.4.3,6.3,5.1H19c-6.2,0-11.3,2.8-13.2,6.8v-6.8H1.7v21.6h4v-5.6c1.8,3.9,7,6.8,13.2,6.8v9.4h8.6v-9.5h33.5v9.4h8.6v-9.4h3.4c5.6,0,10.4-2.3,12.5-5.8v5.8h2.2v-7.1h4.6v-3.3h-4.6v-.8h4.5Z"/>
    </g>
  </a>
</svg>