<?xml version="1.0" encoding="UTF-8"?>
<svg id="Layer_1" xmlns="http://www.w3.org/2000/svg" version="1.1" viewBox="0 0 66.6 57.8">
  <!-- Generator: Adobe Illustrator 29.0.0, SVG Export Plug-In . SVG Version: 2.1.0 Build 186)  -->
  <defs>
    <style>
      .st0 {
        fill: #1179bf;
      }
    </style>
  </defs>
  <path class="st0" d="M63.9,1.2H2.6c-.7,0-1.3.6-1.1,1.3l7.7,40,2.7,14.2h42.6c.5,0,.9-.5,1.1-2L65,1.5c0,.3-.5-.3-1.1-.3ZM25.2,8.5c3.1,0,5.7.6,7.1,1.5V3.3c0-.4.4-.6.6-.6.4,0,.6.4.6.6v6.4c1.2-1,4.1-1.7,7.4-1.7s8,1.3,8,2.8-3.6,2.8-8,2.8-6.2-.7-7.4-1.7v.4c0,.4-.4.6-.6.6-.2.1-.4,0-.6-.3-1.3.9-4,1.5-7.1,1.5-4.4,0-8-1.3-8-2.8s3.6-2.8,8-2.8ZM52.4,52.3c-.1,1.3-.5,1.6-1,1.6H15.9c-.5.1-.8-.1-1-.5l-1.9-9.7c-.3-.7.5-1.3,1.3-1.1,3,1.4,9.6,3.4,18.4-.3v-5.2h.9v4.8c.2-.1.4-.2.7-.3,0,0,10.5-5,19.9-1,.3.3.5.5.5.3l-2.2,11.3ZM26.2,31.2l-.6.6-1.8-1.7-2.1,1.8-.5-.7,2.1-1.8c.2-.2.2-.3.2-.4v-3.1h.9v3.1c0,0,0,.2,0,.3l1.9,1.9ZM29.9,35.7v-3.5c0-.6.5-1.1,1.1-1.1h4.2c.6,0,1.1.5,1.1,1.1v3.5c0,.5-.5,1.1-1.1,1.1h-4.2c-.6,0-1.1-.5-1.1-1.1ZM57.4,25.7h-14.1v2.8c0,0,0,.2,0,.3l1.9,1.9-.6.6-1.8-1.8-2.1,1.8-.5-.7,2.1-1.8c.2-.2.2-.3.2-.4v-2.8H8.9v-.9h48.5v.9Z"/>
</svg>