<?xml version="1.0" encoding="UTF-8"?>
<svg id="Layer_1" xmlns="http://www.w3.org/2000/svg" version="1.1" viewBox="0 0 57.8 53.7">
  <!-- Generator: Adobe Illustrator 29.0.0, SVG Export Plug-In . SVG Version: 2.1.0 Build 186)  -->
  <defs>
    <style>
      .st0 {
        fill: #1179bf;
      }
    </style>
  </defs>
  <path class="st0" d="M52.7,2.1H5c-1.8,0-3.2,1.4-3.2,3.2v43.1c0,1.8,1.4,3.2,3.2,3.2h47.7c1.8,0,3.2-1.4,3.2-3.2V5.3c0-1.8-1.4-3.2-3.2-3.2ZM34.1,45.9h-11.1c-.3,0-.5-.4-.5-.9s.2-.9.5-.9h11.1c.3,0,.5.4.5.9s-.2.9-.5.9ZM34.1,40.1h-11.1c-.3,0-.5-.4-.5-.9s.2-.9.5-.9h11.1c.3,0,.5.4.5.9s-.2.9-.5.9ZM34.1,34.4h-11.1c-.3,0-.5-.4-.5-.9s.2-.9.5-.9h11.1c.3,0,.5.4.5.9s-.2.9-.5.9ZM34.1,28.6h-11.1c-.3,0-.5-.4-.5-.9s.2-.9.5-.9h11.1c.3,0,.5.4.5.9s-.2.9-.5.9ZM34.1,22.9h-11.1c-.3,0-.5-.4-.5-.9s.2-.9.5-.9h11.1c.3,0,.5.4.5.9s-.2.9-.5.9ZM34.1,17.1h-11.1c-.3,0-.5-.4-.5-.9s.2-.9.5-.9h11.1c.3,0,.5.4.5.9s-.2.9-.5.9ZM34.1,11.4h-11.1c-.3,0-.5-.4-.5-.9s.2-.9.5-.9h11.1c.3,0,.5.4.5.9s-.2.9-.5.9ZM50.4,45.6h-11.1c-.3,0-.5-.4-.5-.9s.2-.9.5-.9h11.1c.3,0,.5.4.5.9s-.2.9-.5.9ZM50.4,39.9h-11.1c-.3,0-.5-.4-.5-.9s.2-.9.5-.9h11.1c.3,0,.5.4.5.9s-.2.9-.5.9ZM50.4,34.1h-11.1c-.3,0-.5-.4-.5-.9s.2-.9.5-.9h11.1c.3,0,.5.4.5.9s-.2.9-.5.9ZM50.4,28.4h-11.1c-.3,0-.5-.4-.5-.9s.2-.9.5-.9h11.1c.3,0,.5.4.5.9s-.2.9-.5.9ZM50.4,22.6h-11.1c-.3,0-.5-.4-.5-.9s.2-.9.5-.9h11.1c.3,0,.5.4.5.9s-.2.9-.5.9ZM50.4,16.9h-11.1c-.3,0-.5-.4-.5-.9s.2-.9.5-.9h11.1c.3,0,.5.4.5.9s-.2.9-.5.9ZM50.4,11.1h-11.1c-.3,0-.5-.4-.5-.9s.2-.9.5-.9h11.1c.3,0,.5.4.5.9s-.2.9-.5.9ZM18.3,45.9H7.2c-.3,0-.5-.4-.5-.9s.2-.9.5-.9h11.1c.3,0,.5.4.5.9s-.2.9-.5.9ZM18.3,40.1H7.2c-.3,0-.5-.4-.5-.9s.2-.9.5-.9h11.1c.3,0,.5.4.5.9s-.2.9-.5.9ZM18.3,34.4H7.2c-.3,0-.5-.4-.5-.9s.2-.9.5-.9h11.1c.3,0,.5.4.5.9s-.2.9-.5.9ZM18.3,28.6H7.2c-.3,0-.5-.4-.5-.9s.2-.9.5-.9h11.1c.3,0,.5.4.5.9s-.2.9-.5.9ZM18.3,22.9H7.2c-.3,0-.5-.4-.5-.9s.2-.9.5-.9h11.1c.3,0,.5.4.5.9s-.2.9-.5.9ZM18.3,17.1H7.2c-.3,0-.5-.4-.5-.9s.2-.9.5-.9h11.1c.3,0,.5.4.5.9s-.2.9-.5.9ZM18.3,11.4H7.2c-.3,0-.5-.4-.5-.9s.2-.9.5-.9h11.1c.3,0,.5.4.5.9s-.2.9-.5.9Z"/>
</svg>