<?xml version="1.0" encoding="UTF-8"?>
<svg id="Layer_1" xmlns="http://www.w3.org/2000/svg" version="1.1" viewBox="0 0 43 58.6">
  <!-- Generator: Adobe Illustrator 29.0.0, SVG Export Plug-In . SVG Version: 2.1.0 Build 186)  -->
  <defs>
    <style>
      .st0 {
        fill: #a33123;
      }
    </style>
  </defs>
  <g>
    <g>
      <path class="st0" d="M528.6,368h74.8c1.6,0,3-1.8,3-4v-9.5h-80.7v9.5c0,2.2,1.3,4,3,4Z"/>
      <path class="st0" d="M606.4,337.5c0-2.2-1.3-4-3-4h-74.8c-1.6,0-3,1.8-3,4v14.8h80.7v-14.8ZM598.1,349.2h-64.1v-1.6h64.1v1.6ZM598.1,344.4h-64.1v-1.6h64.1v1.6ZM598.1,339.6h-64.1v-1.6h64.1v1.6Z"/>
    </g>
    <path class="st0" d="M638.1,332.5h-18.1c-2.8,0-5,2.2-5,5v25.2c0,2.8,2.2,5,5,5h18.1c2.8,0,5-2.2,5-5v-25.2c0-2.8-2.2-5-5-5ZM637.7,361.9h-6.7v-1.8h6.7v1.8ZM637.7,354.2h-6.7v-1.8h6.7v1.8ZM637.7,346.5h-6.7v-1.8h6.7v1.8ZM636.5,341.7h-15c-1.3,0-2.3-1-2.3-2.3s1-2.3,2.3-2.3h15c1.3,0,2.3,1,2.3,2.3s-1,2.3-2.3,2.3ZM627.4,362h-6.7v-1.8h6.7v1.8ZM627.4,354.3h-6.7v-1.8h6.7v1.8ZM627.4,346.5h-6.7v-1.8h6.7v1.8Z"/>
  </g>
  <g>
    <g>
      <path class="st0" d="M528.6,368h74.8c1.6,0,3-1.8,3-4v-9.5h-80.7v9.5c0,2.2,1.3,4,3,4Z"/>
      <path class="st0" d="M606.4,337.5c0-2.2-1.3-4-3-4h-74.8c-1.6,0-3,1.8-3,4v14.8h80.7v-14.8ZM598.1,349.2h-64.1v-1.6h64.1v1.6ZM598.1,344.4h-64.1v-1.6h64.1v1.6ZM598.1,339.6h-64.1v-1.6h64.1v1.6Z"/>
    </g>
    <path class="st0" d="M638.1,332.5h-18.1c-2.8,0-5,2.2-5,5v25.2c0,2.8,2.2,5,5,5h18.1c2.8,0,5-2.2,5-5v-25.2c0-2.8-2.2-5-5-5ZM637.7,361.9h-6.7v-1.8h6.7v1.8ZM637.7,354.2h-6.7v-1.8h6.7v1.8ZM637.7,346.5h-6.7v-1.8h6.7v1.8ZM636.5,341.7h-15c-1.3,0-2.3-1-2.3-2.3s1-2.3,2.3-2.3h15c1.3,0,2.3,1,2.3,2.3s-1,2.3-2.3,2.3ZM627.4,362h-6.7v-1.8h6.7v1.8ZM627.4,354.3h-6.7v-1.8h6.7v1.8ZM627.4,346.5h-6.7v-1.8h6.7v1.8Z"/>
  </g>
  <path class="st0" d="M36.6,1.1H6.5C3.6,1.1,1.3,3.4,1.3,6.2v46.1c0,2.8,2.3,5.2,5.2,5.2h30.1c2.8,0,5.2-2.3,5.2-5.2V6.2c0-2.8-2.3-5.2-5.2-5.2ZM8,5.8h10.4c.2,0,.4.5.4,1s-.2,1-.4,1H8c-.2,0-.4-.5-.4-1s.2-1,.4-1ZM22.3,53.9c-.4.2-.6,0-.4-.1,1-1.1,3.7-4.6,3.9-5.4,0,0-2.6,3.5-4.7,4.6-.1,0-.2,0-.1,0,1-1.4,3.7-5.6,3.5-7.9,0,0-2.7,5.2-4.7,6.9-3.5,2.9-5.6-1.5-3.9-6.1.8-2.5,3.3-3.9,4.1-6.7,0,0,.7,1.6,0,3.7-.2.8.4.9,1,.3,1.7-1.8,2.4-4.8.8-7,0,0,5.8,2.6,4.2,10,1.3-1.6,1.3-3.5,1-5.1,2.4,3.1-.7,10.7-4.6,12.8ZM35.1,7.8h-10.4c-.2,0-.4-.5-.4-1s.2-1,.4-1h10.4c.2,0,.4.5.4,1s-.2,1-.4,1ZM8.1,13h10.4c.2,0,.4.5.4,1s-.2,1-.4,1h-10.4c-.2,0-.4-.5-.4-1s.2-1,.4-1ZM34.9,15.1h-10.4c-.2,0-.4-.5-.4-1s.2-1,.4-1h10.4c.2,0,.4.5.4,1s-.2,1-.4,1ZM8.1,21.3h10.4c.2,0,.4.5.4,1s-.2,1-.4,1h-10.4c-.2,0-.4-.5-.4-1s.2-1,.4-1ZM35.1,23.4h-10.4c-.2,0-.4-.5-.4-1s.2-1,.4-1h10.4c.2,0,.4.5.4,1s-.2,1-.4,1ZM8.1,29.8h10.4c.2,0,.4.5.4,1s-.2,1-.4,1h-10.4c-.2,0-.4-.5-.4-1s.2-1,.4-1ZM35.2,31.9h-10.4c-.2,0-.4-.5-.4-1s.2-1,.4-1h10.4c.2,0,.4.5.4,1s-.2,1-.4,1Z"/>
</svg>