<?xml version="1.0" encoding="UTF-8"?>
<svg id="Layer_1" xmlns="http://www.w3.org/2000/svg" version="1.1" viewBox="0 0 32.7 53.2">
  <!-- Generator: Adobe Illustrator 29.0.0, SVG Export Plug-In . SVG Version: 2.1.0 Build 186)  -->
  <defs>
    <style>
      .st0 {
        fill: #a33123;
      }
    </style>
  </defs>
  <g>
    <g>
      <path class="st0" d="M524,368h74.8c1.6,0,3-1.8,3-4v-9.5h-80.7v9.5c0,2.2,1.3,4,3,4Z"/>
      <path class="st0" d="M601.7,337.5c0-2.2-1.3-4-3-4h-74.8c-1.6,0-3,1.8-3,4v14.8h80.7v-14.8ZM593.4,349.2h-64.1v-1.6h64.1v1.6ZM593.4,344.4h-64.1v-1.6h64.1v1.6ZM593.4,339.6h-64.1v-1.6h64.1v1.6Z"/>
    </g>
    <path class="st0" d="M633.4,332.5h-18.1c-2.8,0-5,2.2-5,5v25.2c0,2.8,2.2,5,5,5h18.1c2.8,0,5-2.2,5-5v-25.2c0-2.8-2.2-5-5-5ZM633.1,361.9h-6.7v-1.8h6.7v1.8ZM633.1,354.2h-6.7v-1.8h6.7v1.8ZM633.1,346.5h-6.7v-1.8h6.7v1.8ZM631.8,341.7h-15c-1.3,0-2.3-1-2.3-2.3s1-2.3,2.3-2.3h15c1.3,0,2.3,1,2.3,2.3s-1,2.3-2.3,2.3ZM622.8,362h-6.7v-1.8h6.7v1.8ZM622.8,354.3h-6.7v-1.8h6.7v1.8ZM622.8,346.5h-6.7v-1.8h6.7v1.8Z"/>
  </g>
  <g>
    <g>
      <path class="st0" d="M524,368h74.8c1.6,0,3-1.8,3-4v-9.5h-80.7v9.5c0,2.2,1.3,4,3,4Z"/>
      <path class="st0" d="M601.7,337.5c0-2.2-1.3-4-3-4h-74.8c-1.6,0-3,1.8-3,4v14.8h80.7v-14.8ZM593.4,349.2h-64.1v-1.6h64.1v1.6ZM593.4,344.4h-64.1v-1.6h64.1v1.6ZM593.4,339.6h-64.1v-1.6h64.1v1.6Z"/>
    </g>
    <path class="st0" d="M633.4,332.5h-18.1c-2.8,0-5,2.2-5,5v25.2c0,2.8,2.2,5,5,5h18.1c2.8,0,5-2.2,5-5v-25.2c0-2.8-2.2-5-5-5ZM633.1,361.9h-6.7v-1.8h6.7v1.8ZM633.1,354.2h-6.7v-1.8h6.7v1.8ZM633.1,346.5h-6.7v-1.8h6.7v1.8ZM631.8,341.7h-15c-1.3,0-2.3-1-2.3-2.3s1-2.3,2.3-2.3h15c1.3,0,2.3,1,2.3,2.3s-1,2.3-2.3,2.3ZM622.8,362h-6.7v-1.8h6.7v1.8ZM622.8,354.3h-6.7v-1.8h6.7v1.8ZM622.8,346.5h-6.7v-1.8h6.7v1.8Z"/>
  </g>
  <g>
    <path class="st0" d="M16,7.2S1.5,21.4,1.5,32.7s6.5,15.3,14.5,15.3,14.5-4,14.5-15.3S16,7.2,16,7.2ZM16,43.9c-3.2,0-5.9-2.6-5.9-5.9s.6-2.9,1.6-4v-12.3c0-2.4,1.9-4.3,4.3-4.3s4.3,1.9,4.3,4.3v12.3c1,1.1,1.6,2.5,1.6,4,0,3.2-2.6,5.9-5.9,5.9Z"/>
    <path class="st0" d="M16.7,35.1v-11.1s-1-1.3-1.8,0v11.1c-1.1.4-2,1.5-2,2.8s1.3,3,2.9,3,2.9-1.3,2.9-3-.9-2.5-2.1-2.9Z"/>
  </g>
</svg>