<?xml version="1.0" encoding="UTF-8"?>
<svg id="Layer_1" xmlns="http://www.w3.org/2000/svg" version="1.1" viewBox="0 0 32.3 68.9">
  <!-- Generator: Adobe Illustrator 29.0.0, SVG Export Plug-In . SVG Version: 2.1.0 Build 186)  -->
  <defs>
    <style>
      .st0 {
        fill-rule: evenodd;
      }

      .st0, .st1 {
        fill: #626e73;
      }
    </style>
  </defs>
  <path class="st0" d="M6.9,47.5c-.1,0-.3,0-.3-.2,0-.1,0-.3,0-.4,0-.1.2-.2.3-.2h7.9c.1,0,.3,0,.3.2,0,.1,0,.3,0,.4,0,.1-.2.2-.3.2h-7.9ZM6.9,50.7c-.1,0-.2,0-.3-.1,0,0-.1-.2-.1-.3s0-.2.1-.3c0,0,.2-.1.3-.1h7.9c.1,0,.3,0,.3.2,0,.1,0,.3,0,.4,0,.1-.2.2-.3.2h-7.9ZM6.9,52.6c-.1,0-.2,0-.3-.1,0,0-.1-.2-.1-.3s0-.2.1-.3c0,0,.2-.1.3-.1h7.9c.1,0,.3,0,.3.2,0,.1,0,.3,0,.4,0,.1-.2.2-.3.2h-7.9ZM24.2,57.9l1.6,1.1,1.4-2c0,0,.2-.1.3-.2.4,0,.8-.3,1-.6.2-.3.3-.7.3-1.1,0-.4-.3-.8-.6-1-.3-.2-.7-.3-1.1-.2-.4,0-.8.3-1,.6-.2.3-.3.7-.2,1.1,0,.1,0,.2,0,.3l-1.4,2h0ZM11.1,58.8c0,0-.1-.2-.1-.3,0-.1,0-.2,0-.3,0,0,.2-.1.3-.1.1,0,.2,0,.3,0l.8.7,2.5-2.9c0-.1.2-.1.4-.1.1,0,.2.1.3.3,0,.1,0,.3,0,.4l-2.8,3.2h0c0,0-.2.1-.3.1-.1,0-.2,0-.3,0l-1.1-1h0ZM15.9,55.3c-.8-.8-1.9-1.2-3.1-1-1.1.1-2.1.8-2.7,1.8-.6,1-.6,2.2-.2,3.2.4,1.1,1.3,1.8,2.4,2.1,1.1.3,2.3,0,3.2-.6.9-.7,1.4-1.8,1.4-2.9,0-1-.4-1.9-1.1-2.6h0ZM13.3,53.4h0c-1,0-2,.4-2.8,1-.8.6-1.3,1.6-1.5,2.6-.2,1,0,2,.4,2.9.5.9,1.3,1.6,2.2,2,.9.4,2,.4,3,.1,1-.3,1.8-.9,2.4-1.8.6-.9.8-1.9.7-2.9-.1-1-.6-2-1.3-2.7-.4-.4-.9-.7-1.4-1-.5-.2-1.1-.3-1.7-.3h0ZM27.2,55.7c-.2,0-.4-.1-.5-.3,0-.2,0-.4,0-.5,0-.2.3-.3.5-.3h0c.2,0,.4.1.5.3,0,.2,0,.4,0,.5,0,.2-.3.3-.5.3h0ZM16.8,52c0,0-.1-.2-.1-.3,0-.1,0-.2,0-.3,0,0,.2-.1.3-.1.1,0,.2,0,.3,0l.4.4,1.6-1.8h0c0,0,.2-.1.3-.1.1,0,.2,0,.3,0,0,0,.1.2.1.3,0,.1,0,.2,0,.3l-1.9,2.1c0,0-.2.1-.3.1-.1,0-.2,0-.3,0l-.7-.6ZM16.8,46.9h0c-.1,0-.1-.2-.1-.4,0-.1.1-.2.3-.3.1,0,.3,0,.4,0l.4.4,1.6-1.8h0c0-.1.2-.1.4-.1.1,0,.2.1.3.3,0,.1,0,.3,0,.4l-1.9,2.1c0,0-.2.1-.3.1-.1,0-.2,0-.3,0l-.7-.6h0ZM23.2,58s0,0,0,0l2.5,1.7.3.2h0c0,0,.1.1.1.2,0,0,0,.2,0,.2l-.2.3-2.3-1.6-1.1-.8.2-.2h0s0,0,0,0c0,0,.1,0,.2-.1,0,0,.1,0,.2,0,0,0,0,0,0,0h0ZM21.6,63.3s0,0,0,0l1.9,1.4h0s0,0,0,0l.9.6h0c.1,0,.3,0,.4,0l.2-.3-3.2-2.2-3.1-2.2-.2.3h0c0,.1,0,.3,0,.4l2.9,2ZM21.2,58.4l.6.4,2,1.4,2.9,2h0c.3.2.4.5.5.8s0,.6-.2.9l-.5.7c0,0-.1.1-.2.1,0,0-.2,0-.3,0-2-1.4-4-2.8-6-4.2l-1.1-.8s0,0,0,0h-.2c0-.2-.1-.2-.1-.3,0,0,0-.2,0-.3l.5-.7h0c.2-.3.5-.4.8-.5.3,0,.6,0,.9.2l.3.2h0s0,0,0,0h0ZM17.6,39.2h-8.6c-.2,0-.4,0-.6.2-.2.1-.3.3-.4.5h0c0,.1,0,.2,0,.3v2.2h10.6v-2.2c0-.1,0-.2,0-.3h0c0-.2-.2-.4-.4-.5-.2-.1-.4-.2-.6-.2h0ZM7.2,41.5v-1.2h0s-2.7,0-2.7,0c-.2,0-.5,0-.7.3-.2.2-.3.4-.3.7v24.5c0,.2,0,.5.3.7.2.2.4.3.7.3h17.5c.2,0,.5,0,.7-.3.2-.2.3-.4.3-.7v-.4l-1.2-.9v.6c0,.1,0,.2-.1.3,0,0-.2.1-.3.1H5.2c-.1,0-.2,0-.3-.1,0,0-.1-.2-.1-.3v-23c0-.1,0-.2.1-.3,0,0,.2-.1.3-.1h2ZM19.4,42.3v.6c0,.1,0,.2-.1.3,0,0-.2.1-.3.1H7.6c-.1,0-.2,0-.3-.1,0,0-.1-.2-.1-.3v-.6h-1.6v22.2h15.4v-.7l-2.7-1.9c-.2-.2-.4-.4-.4-.7,0-.3,0-.6.2-.8l.2-.3c-.2-.2-.3-.4-.3-.7,0-.3,0-.5.2-.7,0,0,0,0,0,0l.5-.7h0c.3-.4.7-.7,1.1-.8.4-.1.9,0,1.3.1v-15.1h-1.6ZM19.4,40.2h0v1.3h2c.1,0,.2,0,.3.1,0,0,.1.2.1.3v15.9h.2c0,.1.2-.1.2-.1.2-.3.5-.5.9-.5v-16.1c0-.2,0-.5-.3-.7s-.4-.3-.7-.3h-2.7ZM6.9,45.6c-.1,0-.2,0-.3-.1,0,0-.1-.2-.1-.3s0-.2.1-.3c0,0,.2-.1.3-.1h7.9c.1,0,.3,0,.3.2,0,.1,0,.3,0,.4,0,.1-.2.2-.3.2h-7.9Z"/>
  <g>
    <path class="st1" d="M23,4.9l-5.7,5.7,1.4,1.4,5.7-5.7.2.2c.1.1.3.1.4,0l1-1s0,0,0,0l1.5-2c0-.1,0-.2,0-.3l-1.2-1.2c0,0-.2-.1-.3,0l-2,1.5s0,0,0,0l-1,1c-.1.1-.1.3,0,.4l.2.2Z"/>
    <path class="st1" d="M15,15.6l-1.4-1.4-.5.5c-.3-.2-.8-.2-1,0l-.5.5c-.3-.3-.8-.2-1,0l-5.3,5.3c-.6.6-.6,1.7,0,2.3l1,1c.6.6,1.7.6,2.3,0l5.3-5.3c.3-.3.3-.7,0-1l.5-.5c.3-.3.3-.7,0-1l.5-.5Z"/>
    <path class="st1" d="M26.3,17.6c-1-1-2.5-1.4-3.8-1L12.7,6.8c.8-3.1-2.2-5.8-5.2-4.7,0,0-.1.1-.2.2s0,.2,0,.2l2,2-.5,1.3-1.4.6-2-2c0,0-.2,0-.2,0s-.2,0-.2.2c-1.1,3,1.7,6,4.8,5.2l9.8,9.8c-.7,2.5,1.3,5,3.9,5,.4,0,.9,0,1.3-.2,0,0,.1,0,.2-.2s0-.2,0-.2l-2-2,.6-1.4,1.3-.5,2,2c0,0,.2,0,.2,0,0,0,.2,0,.2-.2.5-1.5.2-3.1-.9-4.2h0Z"/>
  </g>
</svg>