<?xml version="1.0" encoding="UTF-8"?>
<svg id="Layer_1" xmlns="http://www.w3.org/2000/svg" version="1.1" viewBox="0 0 71.7 28.4">
  <!-- Generator: Adobe Illustrator 29.0.0, SVG Export Plug-In . SVG Version: 2.1.0 Build 186)  -->
  <defs>
    <style>
      .st0 {
        fill-rule: evenodd;
      }

      .st0, .st1 {
        fill: #626e73;
      }
    </style>
  </defs>
  <path class="st0" d="M48.9,8.7c0,0-.3,0-.3-.2v-.4c0,0,.2-.2.3-.2h7.9c.1,0,.3,0,.3.2v.4c0,0-.2.2-.3.2h-7.9ZM48.9,11.9c0,0-.2,0-.3,0,0,0,0-.2,0-.3s0-.2,0-.3c0,0,.2,0,.3,0h7.9c.1,0,.3,0,.3.2v.4c0,0-.2.2-.3.2,0,0-7.9,0-7.9,0ZM48.9,13.8c0,0-.2,0-.3,0,0,0,0-.2,0-.3s0-.2,0-.3c0,0,.2,0,.3,0h7.9c.1,0,.3,0,.3.2v.4c0,0-.2.2-.3.2,0,0-7.9,0-7.9,0ZM66.2,19.1l1.6,1.1,1.4-2s.2,0,.3-.2c.4,0,.8-.3,1-.6s.3-.7.3-1.1-.3-.8-.6-1c-.3-.2-.7-.3-1.1-.2-.4,0-.8.3-1,.6s-.3.7-.2,1.1v.3l-1.4,2h-.3ZM53.1,20s-.1-.2-.1-.3v-.3s.2,0,.3,0h.3l.8.7,2.5-2.9c0,0,.2,0,.4,0s.2,0,.3.3v.4l-2.8,3.2h0s-.2,0-.3,0h-.3l-1.1-1h0ZM57.9,16.5c-.8-.8-1.9-1.2-3.1-1-1.1,0-2.1.8-2.7,1.8-.6,1-.6,2.2-.2,3.2.4,1.1,1.3,1.8,2.4,2.1,1.1.3,2.3,0,3.2-.6.9-.7,1.4-1.8,1.4-2.9s-.4-1.9-1.1-2.6h.1ZM55.3,14.6h0c-1,0-2,.4-2.8,1s-1.3,1.6-1.5,2.6,0,2,.4,2.9c.5.9,1.3,1.6,2.2,2s2,.4,3,0c1-.3,1.8-.9,2.4-1.8.6-.9.8-1.9.7-2.9-.1-1-.6-2-1.3-2.7-.4-.4-.9-.7-1.4-1-.5-.2-1.1-.3-1.7-.3h0ZM69.2,16.9c-.2,0-.4,0-.5-.3v-.5c0-.2.3-.3.5-.3h0c.2,0,.4,0,.5.3v.5c0,.2-.3.3-.5.3h0ZM58.8,13.2s-.1-.2-.1-.3v-.3s.2,0,.3,0h.3l.4.4,1.6-1.8h0s.2,0,.3,0h.3s.1.2.1.3v.3l-1.9,2.1s-.2,0-.3,0h-.3s-.7-.6-.7-.6ZM58.8,8.1h0c-.1,0-.1-.2-.1-.4s.1-.2.3-.3h.4l.4.4,1.6-1.8h0c0,0,.2,0,.4,0s.2,0,.3.3v.4l-1.9,2.1s-.2,0-.3,0h-.3l-.7-.6h0ZM65.2,19.2h0l2.5,1.7.3.2h0s.1,0,.1.2v.2l-.2.3-2.3-1.6-1.1-.8.2-.2h0s.1,0,.2,0h.3ZM63.6,24.5h0l1.9,1.4h0l.9.6h.4l.2-.3-3.2-2.2-3.1-2.2-.2.3h0v.4l2.9,2h.2ZM63.2,19.6l.6.4,2,1.4,2.9,2h0c.3.2.4.5.5.8s0,.6-.2.9l-.5.7s-.1,0-.2,0h-.3c-2-1.4-4-2.8-6-4.2l-1.1-.8h-.2c0-.2-.1-.2-.1-.3v-.3l.5-.7h0c.2-.3.5-.4.8-.5.3,0,.6,0,.9.2l.3.2h.1ZM59.6.4h-8.6c-.2,0-.4,0-.6.2-.2,0-.3.3-.4.5h0v2.5h10.6V1.1h0c0-.2-.2-.4-.4-.5-.2,0-.4-.2-.6-.2h0ZM49.2,2.7v-1.2h-2.7c-.2,0-.5,0-.7.3-.2.2-.3.4-.3.7v24.5c0,.2,0,.5.3.7.2.2.4.3.7.3h17.5c.2,0,.5,0,.7-.3.2-.2.3-.4.3-.7v-.4l-1.2-.9v.6c0,0,0,.2-.1.3,0,0-.2,0-.3,0h-16.2c0,0-.2,0-.3,0,0,0,0-.2,0-.3V3.3c0,0,0-.2,0-.3,0,0,.2,0,.3,0h2v-.2ZM61.4,3.5v.6c0,0,0,.2-.1.3,0,0-.2,0-.3,0h-11.4c0,0-.2,0-.3,0,0,0,0-.2,0-.3v-.6h-1.6v22.2h15.4v-.7l-2.7-1.9c-.2-.2-.4-.4-.4-.7s0-.6.2-.8l.2-.3c-.2-.2-.3-.4-.3-.7s0-.5.2-.7h0l.5-.7h0c.3-.4.7-.7,1.1-.8s.9,0,1.3,0V3.4h-1.7ZM61.4,1.4h0v1.3h2c.1,0,.2,0,.3,0,0,0,.1.2.1.3v15.9h.2c0,0,.2,0,.2,0,.2-.3.5-.5.9-.5V2.3c0-.2,0-.5-.3-.7s-.4-.3-.7-.3h-2.7ZM48.9,6.8c0,0-.2,0-.3,0,0,0,0-.2,0-.3s0-.2,0-.3c0,0,.2,0,.3,0h7.9c.1,0,.3,0,.3.2v.4c0,0-.2.2-.3.2,0,0-7.9,0-7.9,0Z"/>
  <g>
    <path class="st1" d="M19.2,5.9l-5.7,5.7,1.4,1.4,5.7-5.7.2.2c.1,0,.3,0,.4,0l1-1h0l1.5-2v-.3l-1.2-1.2s-.2-.1-.3,0l-2,1.5h0l-1,1c-.1,0-.1.3,0,.4l.2.2-.2-.2Z"/>
    <path class="st1" d="M11.2,16.6l-1.4-1.4-.5.5c-.3-.2-.8-.2-1,0l-.5.5c-.3-.3-.8-.2-1,0l-5.3,5.3c-.6.6-.6,1.7,0,2.3l1,1c.6.6,1.7.6,2.3,0l5.3-5.3c.3-.3.3-.7,0-1l.5-.5c.3-.3.3-.7,0-1l.5-.5h0Z"/>
    <path class="st1" d="M22.5,18.6c-1-1-2.5-1.4-3.8-1L8.9,7.8c.8-3.1-2.2-5.8-5.2-4.7,0,0,0,0-.2.2s0,.2,0,.2l2,2-.5,1.3-1.4.6-2-2h-.2s-.2,0-.2.2c-1.1,3,1.7,6,4.8,5.2l9.8,9.8c-.7,2.5,1.3,5,3.9,5s.9,0,1.3-.2c0,0,.1,0,.2-.2s0-.2,0-.2l-2-2,.6-1.4,1.3-.5,2,2h.2s.2,0,.2-.2c.5-1.5.2-3.1-.9-4.2h-.1Z"/>
  </g>
</svg>