<?xml version="1.0" encoding="UTF-8"?>
<svg id="Layer_1" xmlns="http://www.w3.org/2000/svg" version="1.1" viewBox="0 0 129.6 48.6">
  <!-- Generator: Adobe Illustrator 29.0.0, SVG Export Plug-In . SVG Version: 2.1.0 Build 186)  -->
  <defs>
    <style>
      .st0 {
        fill: #7da440;
      }
    </style>
  </defs>
  <g>
    <path class="st0" d="M34.2,12.4v-7.5c0-.7.6-1.2,1.2-1.2h18.2c.7,0,1.2.6,1.2,1.2v4.1s0,0,0,0l-20.6,3.4s0,0,0,0Z"/>
    <ellipse class="st0" cx="44.6" cy="4.1" rx="10.4" ry="2.9"/>
    <polygon class="st0" points="60.2 10.1 75.9 10.5 76.7 15.9 64.9 30.8 64.9 38.6 44.6 47 44.6 44 63.3 36.8 63.3 31.3 44.6 37.3 44.6 34.7 63.7 29.2 75.1 15.6 74.1 11.6 60.3 11.7 60.2 10.1"/>
    <rect class="st0" x="58.6" y="16.1" width="1.5" height="16.7" rx=".7" ry=".7" transform="translate(28.6 -31.8) rotate(39)"/>
    <rect class="st0" x="62.2" y="15.5" width="1.5" height="16.7" rx=".7" ry=".7" transform="translate(29 -34.3) rotate(39)"/>
    <rect class="st0" x="65.5" y="14.7" width="1.5" height="16.7" rx=".7" ry=".7" transform="translate(29.3 -36.5) rotate(39)"/>
    <g>
      <polygon class="st0" points="31.5 33.8 31.5 14.1 12.7 16.8 12.7 33.8 31.5 33.8"/>
      <path class="st0" d="M31.5,47.2v-12.3H12.7v12.6h18.9v-.2"/>
      <path class="st0" d="M11.6,47.3v.2H3.9c-1.5,0-2.7-1.2-2.7-2.7v-24.1c0-1.5,1.2-2.7,2.7-2.7l7.7-1.1v30.4Z"/>
      <path class="st0" d="M60.2,10.1l-27.6,3.8v33.5h12.4c1.5,0,2.7-1.2,2.7-2.7v-9.3l15.3-18.3v-4.4c0-1.5-1.2-2.7-2.7-2.7Z"/>
      <path class="st0" d="M31.5,14.1"/>
    </g>
  </g>
  <g>
    <path class="st0" d="M79.1,33.1s0,0,0,0v9.9c0,1.1,1,2.1,2.2,2.1h44.7c1.2,0,2.2-.9,2.2-2.1v-9.9h-49.2ZM115.4,41.9h-16.1c-.2,0-.4-.3-.4-.7s.2-.7.4-.7h16.1c.2,0,.4.3.4.7s-.2.7-.4.7ZM115.4,38.5h-16.1c-.2,0-.4-.4-.4-.8s.2-.8.4-.8h16.1c.2,0,.4.4.4.8s-.2.8-.4.8ZM97,41.8h-14.7c-.2,0-.4-.3-.4-.7s.2-.7.4-.7h14.7c.2,0,.4.3.4.7s-.2.7-.4.7ZM97,38.4h-14.7c-.2,0-.4-.4-.4-.8s.2-.8.4-.8h14.7c.2,0,.4.4.4.8s-.2.8-.4.8Z"/>
    <path class="st0" d="M128.3,32.3h0v-6.6c0-.9-1-1.6-2.2-1.6h-44.7c-1.2,0-2.2.7-2.2,1.6v6.6s0,0,0,0h49.2ZM81.9,27.3h32.5c1,0,.9.3.9.8s0,.8-.9.8h-32.5c-1,0-1-.3-1-.8s0-.8,1-.8Z"/>
  </g>
</svg>