<?xml version="1.0" encoding="UTF-8"?>
<svg id="Layer_1" xmlns="http://www.w3.org/2000/svg" version="1.1" viewBox="0 0 120.6 40">
  <!-- Generator: Adobe Illustrator 29.0.0, SVG Export Plug-In . SVG Version: 2.1.0 Build 186)  -->
  <defs>
    <style>
      .st0 {
        fill: #a33123;
      }
    </style>
  </defs>
  <g>
    <path class="st0" d="M4.6,37.2h74.8c1.6,0,3-1.8,3-4v-9.5H1.6v9.5c0,2.2,1.3,4,3,4Z"/>
    <path class="st0" d="M82.3,6.7c0-2.2-1.3-4-3-4H4.6c-1.6,0-3,1.8-3,4v14.8h80.7V6.7ZM74,18.5H9.9v-1.6h64.1v1.6ZM74,13.7H9.9v-1.6h64.1v1.6ZM74,8.9H9.9v-1.6h64.1v1.6Z"/>
  </g>
  <path class="st0" d="M114,2.4h-18.1c-2.8,0-5,2.2-5,5v25.2c0,2.8,2.2,5,5,5h18.1c2.8,0,5-2.2,5-5V7.4c0-2.8-2.2-5-5-5ZM113.7,31.8h-6.7v-1.8h6.7v1.8ZM113.7,24h-6.7v-1.8h6.7v1.8ZM113.7,16.3h-6.7v-1.8h6.7v1.8ZM112.5,11.5h-15c-1.3,0-2.3-1-2.3-2.3s1-2.3,2.3-2.3h15c1.3,0,2.3,1,2.3,2.3s-1,2.3-2.3,2.3ZM103.4,31.8h-6.7v-1.8h6.7v1.8ZM103.4,24.1h-6.7v-1.8h6.7v1.8ZM103.4,16.4h-6.7v-1.8h6.7v1.8Z"/>
</svg>