<?xml version="1.0" encoding="UTF-8"?>
<svg id="Layer_1" xmlns="http://www.w3.org/2000/svg" version="1.1" viewBox="0 0 21.1 41.8">
  <!-- Generator: Adobe Illustrator 29.0.0, SVG Export Plug-In . SVG Version: 2.1.0 Build 186)  -->
  <defs>
    <style>
      .st0 {
        fill: #626e73;
      }
    </style>
  </defs>
  <path class="st0" d="M19.4,22.1h-.8v-12.2c0-1.1-.9-1.9-1.9-1.9h-2.1v-1.3c0-.5-.4-1-1-1h-6.1c-.5,0-1,.4-1,1v1.3h-2.1c-1.1,0-1.9.9-1.9,1.9v12.2h-.8c-.4,0-.7.3-.7.7v.8c0,.4.3.7.7.7h.8v13.8c0,1.1.9,1.9,1.9,1.9h12.2c1.1,0,1.9-.9,1.9-1.9v-13.8h.8c.4,0,.7-.3.7-.7v-.8c0-.4-.3-.7-.7-.7ZM17.2,27.4c-.1.2-.4.3-.6.2l-.4-.2-.3.5c0,.2-.3.2-.4.1-.1,0-.2-.3-.1-.4l.3-.5-.8-.5-.2.4h.2c.1.2.2.4.1.6,0,.2-.3.2-.4.1h-.2c0-.1,0,0,0,0-.1.3-.4.4-.5.3-.2,0-.2-.4,0-.6v-.2c0,0-.1-.2-.1-.2-.1,0-.2-.3-.1-.4,0-.2.3-.2.4-.1l.2.2.2-.4-.8-.5-.3.5c0,.2-.3.2-.4.1-.1,0-.2-.3-.1-.4l.3-.5-1.7-1.1c0,0-.2,0-.2.1v1.7h.5c.2,0,.3.1.3.3s-.1.3-.3.3h-.5v1h.5v-.3c0-.2.1-.3.3-.3s.3.1.3.3v.3h0c.3,0,.5.2.5.3s-.2.3-.5.3h0v.3c0,.2-.1.3-.3.3s-.3-.1-.3-.3v-.3h-.5v1h.5c.2,0,.3.1.3.3s-.1.3-.3.3h-.5v.5c0,.3-.2.5-.4.5s-.4-.2-.4-.5v-.5h-.6c-.2,0-.3-.1-.3-.3s.1-.3.3-.3h.6v-1h-.5v.2c0,.2-.1.3-.3.3s-.3-.1-.3-.3v-.2h-.2c-.3,0-.5-.2-.5-.3s.2-.3.5-.3h.2v-.3c0-.2.1-.3.3-.3s.3.1.3.3v.3h.5v-1h-.6c-.2,0-.3-.1-.3-.3s.1-.3.3-.3h.6v-1.6c-.2,0-.3-.1-.5-.3l-1.6,1.3.3.4c0,.1,0,.3,0,.5-.1.1-.3,0-.4,0l-.3-.4-.7.6.3.4.2-.2c.1-.1.3,0,.4,0,0,.1,0,.3,0,.5l-.2.2h0c.2.3.2.5,0,.7-.1.1-.4,0-.6-.2h0s-.2.1-.2.1c-.1.1-.3,0-.4,0,0-.1,0-.3,0-.4l.2-.2-.3-.4-.7.6.3.4c0,.1,0,.3,0,.4-.1.1-.3,0-.4,0l-.3-.4-.3.3c-.2.2-.5.1-.6,0-.1-.2-.1-.5,0-.7l.3-.3-.3-.5c0-.1,0-.3,0-.5.1-.1.3,0,.4,0l.3.5.7-.6-.3-.4h-.2c-.1.2-.3.2-.4,0,0-.1,0-.3,0-.4h.2c0-.1-.1-.3-.1-.3-.2-.2-.2-.5,0-.6.1-.1.4,0,.6.2v.2c.1,0,.3-.2.3-.2.1-.1.3,0,.4,0,0,.1,0,.3,0,.5l-.2.2.3.4.7-.6-.3-.5c0-.1,0-.3,0-.5.1-.1.3,0,.4,0l.3.5,1.7-1.3c0-.1,0-.2,0-.3s0-.1,0-.2l-1.6-1-.2.4c0,.2-.3.2-.4.1-.1,0-.2-.3-.1-.4l.2-.4-.8-.5-.2.4h.2c.1.2.2.4.1.6,0,.2-.3.2-.4.1h-.2c0-.1,0-.1,0-.1-.1.3-.4.4-.5.3-.2,0-.2-.4,0-.6h0s-.2-.2-.2-.2c-.1,0-.2-.3-.1-.4,0-.2.3-.2.4-.1h.2c0,.1.2-.3.2-.3l-.8-.5-.2.4c0,.2-.3.2-.4.1-.1,0-.2-.3-.1-.4l.2-.4-.4-.2c-.2-.1-.3-.4-.2-.6.1-.2.4-.3.6-.2l.4.2.3-.5c0-.2.3-.2.4-.1.1,0,.2.3.1.4l-.3.5.8.5.2-.4h-.2c-.1-.2-.2-.4-.1-.6,0-.2.3-.2.4-.1h.2c0,.1,0,0,0,0,.1-.3.4-.4.5-.3.2,0,.2.4,0,.6v.2c0,0,.1.2.1.2.1,0,.2.3.1.4,0,.2-.3.2-.4.1l-.2-.2-.2.4.8.5.3-.5c0-.2.3-.2.4-.1.1,0,.2.3.1.4l-.3.5,1.6,1c.1-.2.3-.3.5-.4v-1.9s-.5,0-.5,0c-.2,0-.3-.1-.3-.3,0-.2.1-.3.3-.3h.5v-1h-.5v.3c0,.2-.1.3-.3.3s-.3-.1-.3-.3v-.3h0c-.3,0-.5-.2-.5-.3s.2-.3.5-.3h0v-.3c0-.2.1-.3.3-.3s.3.1.3.3v.3h.5v-1s-.5,0-.5,0c-.2,0-.3-.1-.3-.3s.1-.3.3-.3h.5v-.5c0-.3.2-.5.4-.5s.4.2.4.5v.5h.6c.2,0,.3.1.3.3s-.1.3-.3.3h-.6v1h.5v-.2c0-.2.1-.3.3-.3s.3.1.3.3v.2h.2c.3,0,.5.2.5.3s-.2.3-.5.3h-.2v.3c0,.2-.1.3-.3.3s-.3-.1-.3-.3v-.3h-.5v1h.6c.2,0,.3.1.3.3s-.1.3-.3.3h-.6v1.9c.2,0,.4.2.5.3l1.2-1-.3-.4c-.1-.1,0-.3,0-.5.1-.1.3,0,.4,0l.3.4.7-.6-.3-.4-.2.2c-.1.1-.3,0-.4,0-.1-.1,0-.3,0-.5l.2-.2h0c-.2-.3-.2-.5,0-.7.1-.1.4,0,.6.2h0s.2-.1.2-.1c.1-.1.3,0,.4,0,.1.1,0,.3,0,.5l-.2.2.3.4.7-.6-.3-.4c-.1-.1,0-.3,0-.5.1-.1.3,0,.4,0l.3.4.3-.3c.2-.2.5-.1.6,0,.2.2.1.5,0,.7l-.3.3.4.5c.1.1,0,.3,0,.5-.1.1-.3,0-.4,0l-.4-.5-.7.6.3.4h.2c.1-.3.3-.2.4,0,.1.1,0,.3,0,.5h-.2c0,.1.1.3.1.3.2.2.2.5,0,.6-.1.1-.4,0-.6-.2v-.2c-.1,0-.3.2-.3.2-.1.1-.3,0-.4,0-.1-.1,0-.3,0-.5l.2-.2-.3-.4-.7.6.4.5c.1.1,0,.3,0,.5-.1.1-.3,0-.4,0l-.4-.5-1.3,1.1c0,0,0,.1,0,.2,0,.2,0,.3,0,.5l1.6,1,.2-.4c0-.2.3-.2.4-.1.1,0,.2.3.1.4l-.2.4.8.5.2-.4h-.2c-.1-.2-.2-.4-.1-.6,0-.2.3-.2.4-.1h.2c0,.1,0,.1,0,.1.1-.3.4-.4.5-.3.2,0,.2.4,0,.6h0s.2.2.2.2c.1,0,.2.3.1.4,0,.2-.3.2-.4.1h-.2c0-.1-.2.3-.2.3l.8.5.2-.4c0-.2.3-.2.4-.1.1,0,.2.3.1.4l-.2.4.4.2c.2.1.3.4.2.6ZM12,5.7h-2.8V1.8h2.8v3.9Z"/>
</svg>