<?xml version="1.0" encoding="UTF-8"?>
<svg id="Layer_1" xmlns="http://www.w3.org/2000/svg" version="1.1" viewBox="0 0 72 52.7">
  <!-- Generator: Adobe Illustrator 29.0.0, SVG Export Plug-In . SVG Version: 2.1.0 Build 186)  -->
  <defs>
    <style>
      .st0 {
        fill: #1179bf;
      }
    </style>
  </defs>
  <path class="st0" d="M67.5,1.2H4.5c-1.6,0-3,1.3-3,3v44.2c0,1.6,1.3,3,3,3h62.9c1.6,0,3-1.3,3-3V4.2c0-1.6-1.3-3-3-3ZM4.5,3.9h62.9c.2,0,.3.1.3.3v38.3H4.2V4.2c0-.2.1-.3.3-.3Z"/>
  <path class="st0" d="M7.8,41.3h26.2c.5,0,1-.2,1.4-.5.3.3.8.5,1.3.5h27.7c1.1,0,2-.9,2-2V7.4c0-1.1-.9-2-2-2h-27.7c-.5,0-.9.2-1.3.5-.4-.3-.9-.5-1.4-.5H7.8c-1.3,0-2.4,1.1-2.4,2.4v31c0,1.3,1.1,2.4,2.4,2.4ZM33.9,39.2h-.6s0,0,0-.1v-5.5c0-.3-.3-.6-.6-.6h-2.8c-.3,0-.6.3-.6.6v5.5s0,0,0,.1h-1.2s0,0,0-.1v-5.5c0-.3-.3-.6-.6-.6h-2.8c-.3,0-.6.3-.6.6v5.5s0,0,0,.1h-1.2s0,0,0,0v-5.6c0-.3-.2-.6-.6-.6h-2.9c-.3,0-.6.2-.6.6v5.6s0,0,0,0h-1.2s0,0,0,0v-5.6c0-.3-.3-.6-.6-.6h-2.9c-.3,0-.6.3-.6.6v5.6s0,0,0,0h-1.2v-5.8c0-.3-.2-.5-.5-.5h-3.1c-.3,0-.5.2-.5.5v5.8h-.5c-.2,0-.3-.2-.3-.3v-9.7h26.8v9.7c0,.2-.2.3-.3.3ZM34.3,17.3v9.8h-1.2c.1-.1.2-.3.2-.5v-5.5c0-.3-.3-.6-.6-.6h-2.8c-.3,0-.6.3-.6.6v5.5c0,.2,0,.4.2.5h-1.7c.1-.1.2-.3.2-.5v-5.5c0-.3-.3-.6-.6-.6h-2.8c-.3,0-.6.3-.6.6v5.5c0,.2,0,.4.2.5h-1.6c.1-.1.2-.2.2-.4v-5.6c0-.3-.2-.6-.6-.6h-2.9c-.3,0-.6.2-.6.6v5.6c0,.2,0,.3.2.4h-1.6c.1-.1.2-.2.2-.4v-5.6c0-.3-.3-.6-.6-.6h-2.9c-.3,0-.6.3-.6.6v5.6c0,.2,0,.3.2.4h-1.5c0,0,.1-.2.1-.3v-5.8c0-.3-.2-.5-.5-.5h-3.1c-.3,0-.5.2-.5.5v5.8c0,.1,0,.2.1.3h-1v-9.8h26.8ZM64.2,17.3v9.8h-27.5v-9.8h27.5ZM36.7,39.2v-10h27.5v10h-27.5ZM64.2,7.5v7.7h-1.2s0,0,0-.1v-2.8l-.8-1.4v-1h0c0,0,.1,0,.1-.1h0c0-.2,0-.3-.1-.3h-.9c0,0-.1,0-.1.1h0c0,.2,0,.3.1.3h0v1l-.8,1.4v2.8s0,0,0,.1h-1c.1,0,.2-.2.2-.3v-2.8l-.8-1.4v-1h0c0,0,.1,0,.1-.1h0c0-.2,0-.3-.1-.3h-.9c0,0-.1,0-.1.1h0c0,.2,0,.3.1.3h0v1l-.8,1.4v2.8c0,.1,0,.2.2.3h-1.2c.1,0,.2-.2.2-.3v-2.8l-.8-1.4v-1h0c0,0,.1,0,.1-.1h0c0-.2,0-.3-.1-.3h-.9c0,0-.1,0-.1.1h0c0,.2,0,.3.1.3h0v1l-.8,1.4v2.8c0,.1,0,.2.2.3h-1.2c.1,0,.2-.2.2-.3v-2.8l-.8-1.4v-1h0c0,0,.1,0,.1-.1h0c0-.2,0-.3-.1-.3h-.9c0,0-.1,0-.1.1h0c0,.2,0,.3.1.3h0v1l-.8,1.4v2.8c0,.1,0,.2.2.3h-1.2c.1,0,.2-.2.2-.3v-2.8l-.8-1.4v-1h0c0,0,.1,0,.1-.1h0c0-.2,0-.3-.1-.3h-.9c0,0-.1,0-.1.1h0c0,.2,0,.3.1.3h0v1l-.8,1.4v2.8c0,.1,0,.2.2.3h-1.2c.1,0,.2-.2.2-.3v-2.8l-.8-1.4v-1h0c0,0,.1,0,.1-.1h0c0-.2,0-.3-.1-.3h-.9c0,0-.1,0-.1.1h0c0,.2,0,.3.1.3h0v1l-.8,1.4v2.8c0,.1,0,.2.2.3h-1.2c.1,0,.2-.2.2-.3v-2.8l-.8-1.4v-1h0c0,0,.1,0,.1-.1h0c0-.2,0-.3-.1-.3h-.9c0,0-.1,0-.1.1h0c0,.2,0,.3.1.3h0v1l-.8,1.4v2.8c0,.1,0,.2.2.3h-1.2c.1,0,.2-.2.2-.3v-2.8l-.8-1.4v-1h0c0,0,.1,0,.1-.1h0c0-.2,0-.3-.1-.3h-.9c0,0-.1,0-.1.1h0c0,.2,0,.3.1.3h0v1l-.8,1.4v2.8c0,.1,0,.2.2.3h-.6v-7.7h27.5ZM7.8,7.5h26.2c.2,0,.3.2.3.3v7.4h-1c0,0,0-.2,0-.3v-5.5c0-.3-.3-.6-.6-.6h-2.8c-.3,0-.6.3-.6.6v5.5c0,.1,0,.2,0,.3h-1.4c0,0,0-.2,0-.3v-5.5c0-.3-.3-.6-.6-.6h-2.8c-.3,0-.6.3-.6.6v5.5c0,.1,0,.2,0,.3h-1.4c0,0,0-.2,0-.3v-5.6c0-.3-.2-.6-.6-.6h-2.9c-.3,0-.6.2-.6.6v5.6c0,0,0,.2,0,.3h-1.4c0,0,0-.2,0-.3v-5.6c0-.3-.3-.6-.6-.6h-2.9c-.3,0-.6.3-.6.6v5.6c0,.1,0,.2,0,.3h-1.3c0,0,0-.1,0-.2v-5.8c0-.3-.2-.5-.5-.5h-3.1c-.3,0-.5.2-.5.5v5.8c0,0,0,.1,0,.2h-.9v-7.4c0-.2.2-.3.3-.3Z"/>
  <path class="st0" d="M38,22.5v4.1c0,.3.2.5.5.5h2.3c.3,0,.5-.2.5-.5v-4.1l-1.1-2v-1.5h0c0,0,.2,0,.2-.2v-.2c0,0,0-.2-.2-.2h-1.2c0,0-.2,0-.2.2v.2c0,0,0,.2.2.2h0v1.5l-1.1,2Z"/>
  <path class="st0" d="M42.7,27h2.3c.3,0,.5-.2.5-.5v-4.1l-1.1-2v-1.5h0c0,0,.2,0,.2-.2v-.2c0,0,0-.2-.2-.2h-1.2c0,0-.2,0-.2.2v.2c0,0,0,.2.2.2h0v1.5l-1.1,2v4.1c0,.3.2.5.5.5Z"/>
  <path class="st0" d="M46.8,27h2.3c.3,0,.5-.2.5-.5v-4.1l-1.1-2v-1.5h0c0,0,.2,0,.2-.2v-.2c0,0,0-.2-.2-.2h-1.2c0,0-.2,0-.2.2v.2c0,0,0,.2.2.2h0v1.5l-1.1,2v4.1c0,.3.2.5.5.5Z"/>
  <path class="st0" d="M51,27h2.3c.3,0,.5-.2.5-.5v-4.1l-1.1-2v-1.5h0c0,0,.2,0,.2-.2v-.2c0,0,0-.2-.2-.2h-1.2c0,0-.2,0-.2.2v.2c0,0,0,.2.2.2h0v1.5l-1.1,2v4.1c0,.3.2.5.5.5Z"/>
  <path class="st0" d="M55.2,27h2.3c.3,0,.5-.2.5-.5v-4.1l-1.1-2v-1.5h0c0,0,.2,0,.2-.2v-.2c0,0,0-.2-.2-.2h-1.2c0,0-.2,0-.2.2v.2c0,0,0,.2.2.2h0v1.5l-1.1,2v4.1c0,.3.2.5.5.5Z"/>
  <path class="st0" d="M59.3,27h2.3c.3,0,.5-.2.5-.5v-4.1l-1.1-2v-1.5h0c0,0,.2,0,.2-.2v-.2c0,0,0-.2-.2-.2h-1.2c0,0-.2,0-.2.2v.2c0,0,0,.2.2.2h0v1.5l-1.1,2v4.1c0,.3.2.5.5.5Z"/>
  <path class="st0" d="M40.8,31.1h0c0,0,.2,0,.2-.2v-.2c0,0,0-.2-.2-.2h-1.2c0,0-.2,0-.2.2v.2c0,0,0,.2.2.2h0v1.5l-1.1,2v4.1c0,.3.2.5.5.5h2.3c.3,0,.5-.2.5-.5v-4.1l-1.1-2v-1.5Z"/>
  <path class="st0" d="M45,31.1h0c0,0,.2,0,.2-.2v-.2c0,0,0-.2-.2-.2h-1.2c0,0-.2,0-.2.2v.2c0,0,0,.2.2.2h0v1.5l-1.1,2v4.1c0,.3.2.5.5.5h2.3c.3,0,.5-.2.5-.5v-4.1l-1.1-2v-1.5Z"/>
  <path class="st0" d="M49.2,31.1h0c0,0,.2,0,.2-.2v-.2c0,0,0-.2-.2-.2h-1.2c0,0-.2,0-.2.2v.2c0,0,0,.2.2.2h0v1.5l-1.1,2v4.1c0,.3.2.5.5.5h2.3c.3,0,.5-.2.5-.5v-4.1l-1.1-2v-1.5Z"/>
  <path class="st0" d="M53.3,31.1h0c0,0,.2,0,.2-.2v-.2c0,0,0-.2-.2-.2h-1.2c0,0-.2,0-.2.2v.2c0,0,0,.2.2.2h0v1.5l-1.1,2v4.1c0,.3.2.5.5.5h2.3c.3,0,.5-.2.5-.5v-4.1l-1.1-2v-1.5Z"/>
  <path class="st0" d="M57.5,31.1h0c0,0,.2,0,.2-.2v-.2c0,0,0-.2-.2-.2h-1.2c0,0-.2,0-.2.2v.2c0,0,0,.2.2.2h0v1.5l-1.1,2v4.1c0,.3.2.5.5.5h2.3c.3,0,.5-.2.5-.5v-4.1l-1.1-2v-1.5Z"/>
  <path class="st0" d="M61.7,31.1h0c0,0,.2,0,.2-.2v-.2c0,0,0-.2-.2-.2h-1.2c0,0-.2,0-.2.2v.2c0,0,0,.2.2.2h0v1.5l-1.1,2v4.1c0,.3.2.5.5.5h2.3c.3,0,.5-.2.5-.5v-4.1l-1.1-2v-1.5Z"/>
</svg>