<?xml version="1.0" encoding="UTF-8"?>
<svg id="Layer_1" xmlns="http://www.w3.org/2000/svg" version="1.1" viewBox="0 0 30.7 17.6">
  <!-- Generator: Adobe Illustrator 29.0.0, SVG Export Plug-In . SVG Version: 2.1.0 Build 186)  -->
  <defs>
    <style>
      .st0 {
        fill: #626e73;
      }
    </style>
  </defs>
  <path class="st0" d="M28.8,4.1h-2c-.4,0-.7-.3-.7-.7s.3-.7.7-.7h2c.4,0,.7.3.7.7s-.3.7-.7.7Z"/>
  <path class="st0" d="M28.8,14.9h-2c-.4,0-.7-.3-.7-.7s.3-.7.7-.7h2c.4,0,.7.3.7.7s-.3.7-.7.7Z"/>
  <path class="st0" d="M1.9,4.1h20.2c.4,1.4,1.9,2.3,3.3,1.9,1.4-.4,2.3-1.9,1.9-3.3-.4-1.4-1.9-2.3-3.3-1.9-1,.2-1.7,1-1.9,1.9H1.9c-.4,0-.7.3-.7.7s.3.7.7.7Z"/>
  <path class="st0" d="M28.8,8.1h-9.6c-.4-1.4-1.8-2.3-3.3-1.9-1,.2-1.7,1-1.9,1.9H1.9c-.4,0-.7.3-.7.7s.3.7.7.7h12c.4,1.4,1.8,2.3,3.3,1.9,1-.2,1.7-1,1.9-1.9h9.6c.4,0,.7-.3.7-.7s-.3-.7-.7-.7Z"/>
  <path class="st0" d="M24.7,11.5c-1.2,0-2.3.8-2.6,2H1.9c-.4,0-.7.3-.7.7s.3.7.7.7h20.2c.4,1.4,1.9,2.3,3.3,1.9,1.4-.4,2.3-1.9,1.9-3.3-.3-1.2-1.4-2-2.6-2Z"/>
</svg>