<?xml version="1.0" encoding="UTF-8"?>
<svg id="Layer_1" xmlns="http://www.w3.org/2000/svg" version="1.1" viewBox="0 0 116 41.8">
  <!-- Generator: Adobe Illustrator 29.0.0, SVG Export Plug-In . SVG Version: 2.1.0 Build 186)  -->
  <defs>
    <style>
      .st0 {
        fill: #7da440;
      }
    </style>
  </defs>
  <path class="st0" d="M112.4,10h-43.3c-.9,0-1.6.7-1.6,1.7v18.4c0,.9.7,1.7,1.6,1.7h43.3c.9,0,1.6-.7,1.6-1.7V11.7c0-.9-.7-1.7-1.6-1.7ZM109.3,27.8h-36.7c-.7,0-1.3-.6-1.3-1.3s.6-1.3,1.3-1.3h36.7c.7,0,1.3.6,1.3,1.3s-.6,1.3-1.3,1.3Z"/>
  <path class="st0" d="M58.2,25.3h0l-3.5-1.4v-8.5l1.9-1c.4,0,.7-.3.7-.7v-3.3c0-.4-.3-.7-.7-.7l-1.9-1.6v-3.4c0-2-1.5-3.6-3.4-3.6H5.5c-1.9,0-3.4,1.6-3.4,3.6v32.1c0,2,1.5,3.6,3.4,3.6h52.7c.5,0,.9-.4.9-1v-13.3c0-.5-.4-1-.9-1ZM31.3,14.8l-3.3,1.9c-1-1.5-2.4-2.7-4.1-3.3l1.3-3.6c2.5,1,4.7,2.8,6.1,5.1ZM28.5,22.6l-5.7-1c0-.2,0-.5-.2-.7l5-2.9c.6,1.1,1,2.4,1,3.8s0,.5,0,.8ZM26,27.7l-3.7-4.5c.2-.2.3-.4.4-.7l5.7,1c-.3,1.6-1.2,3-2.3,4.1ZM12.4,23.6l5.6-1c0,.3.2.5.4.7l-3.7,4.4c-1.1-1.1-1.9-2.5-2.3-4.1ZM12.2,21.9c0-1.4.3-2.6.9-3.8l4.9,2.8c0,.2-.1.5-.2.7l-5.6,1c0-.2,0-.5,0-.7ZM20.3,19.3c-.1,0-.2,0-.3,0l-1.9-5.3c.7-.2,1.5-.3,2.3-.3s1.5.1,2.2.3l-1.9,5.4c-.1,0-.2,0-.3,0ZM19.1,19.7c-.2.1-.4.2-.5.4l-4.9-2.8c.9-1.3,2.1-2.3,3.5-2.9l1.9,5.3ZM19.1,23.9c.2.1.5.2.8.3v5.8c-1.7-.1-3.2-.7-4.4-1.7l3.7-4.4ZM19.8,31.1v3.8c-2.9-.1-5.5-1.1-7.6-2.8l2.4-2.9c1.4,1.1,3.2,1.8,5.1,1.9ZM20.8,31.1c1.9,0,3.7-.8,5.2-1.9l2.4,2.9c-2.1,1.7-4.7,2.7-7.6,2.8v-3.8ZM20.8,30v-5.8c.3,0,.5-.2.8-.3l3.7,4.4c-1.3,1-2.8,1.6-4.5,1.6ZM22.1,20.1c-.2-.2-.3-.3-.5-.4l1.9-5.4c1.4.6,2.7,1.6,3.6,2.9l-5,2.9ZM24.3,9.4l-1.3,3.6c-.8-.2-1.7-.4-2.6-.4s-1.8.1-2.7.4l-1.3-3.6c1.2-.4,2.6-.6,3.9-.6s2.7.2,3.9.6ZM15.5,9.7l1.3,3.6c-1.7.7-3.1,1.9-4.1,3.4l-3.3-1.9c1.5-2.3,3.6-4,6.1-5.1ZM8.8,15.6l3.4,1.9c-.7,1.3-1.1,2.8-1.1,4.3s0,.6,0,.9l-3.8.7c0-.5-.1-1.1-.1-1.6,0-2.2.6-4.4,1.6-6.2ZM7.5,24.4l3.8-.7c.4,1.8,1.3,3.5,2.6,4.7l-2.4,2.9c-2-1.8-3.4-4.2-4-7ZM29.1,31.4l-2.4-2.9c1.3-1.3,2.3-2.9,2.7-4.8l3.7.7c-.6,2.7-2,5.2-4,7ZM33.3,23.5l-3.7-.7c0-.3,0-.6,0-.9,0-1.6-.4-3.1-1.1-4.4l3.3-1.9c1,1.8,1.6,4,1.6,6.2s0,1.1-.1,1.7Z"/>
</svg>