<?xml version="1.0" encoding="UTF-8"?>
<svg id="Layer_1" xmlns="http://www.w3.org/2000/svg" version="1.1" viewBox="0 0 60.5 45.9">
  <!-- Generator: Adobe Illustrator 29.0.0, SVG Export Plug-In . SVG Version: 2.1.0 Build 186)  -->
  <defs>
    <style>
      .st0 {
        fill: #a33123;
      }

      .st1 {
        fill: #7da440;
      }
    </style>
  </defs>
  <g>
    <g>
      <path class="st0" d="M537.8,361.2h74.8c1.6,0,3-1.8,3-4v-9.5h-80.7v9.5c0,2.2,1.3,4,3,4Z"/>
      <path class="st0" d="M615.6,330.7c0-2.2-1.3-4-3-4h-74.8c-1.6,0-3,1.8-3,4v14.8h80.7v-14.8ZM607.3,342.5h-64.1v-1.6h64.1v1.6ZM607.3,337.7h-64.1v-1.6h64.1v1.6ZM607.3,332.9h-64.1v-1.6h64.1v1.6Z"/>
    </g>
    <path class="st0" d="M647.3,325.8h-18.1c-2.8,0-5,2.2-5,5v25.2c0,2.8,2.2,5,5,5h18.1c2.8,0,5-2.2,5-5v-25.2c0-2.8-2.2-5-5-5ZM646.9,355.2h-6.7v-1.8h6.7v1.8ZM646.9,347.5h-6.7v-1.8h6.7v1.8ZM646.9,339.7h-6.7v-1.8h6.7v1.8ZM645.7,334.9h-15c-1.3,0-2.3-1-2.3-2.3s1-2.3,2.3-2.3h15c1.3,0,2.3,1,2.3,2.3s-1,2.3-2.3,2.3ZM636.6,355.3h-6.7v-1.8h6.7v1.8ZM636.6,347.5h-6.7v-1.8h6.7v1.8ZM636.6,339.8h-6.7v-1.8h6.7v1.8Z"/>
  </g>
  <g>
    <g>
      <path class="st0" d="M537.8,361.2h74.8c1.6,0,3-1.8,3-4v-9.5h-80.7v9.5c0,2.2,1.3,4,3,4Z"/>
      <path class="st0" d="M615.6,330.7c0-2.2-1.3-4-3-4h-74.8c-1.6,0-3,1.8-3,4v14.8h80.7v-14.8ZM607.3,342.5h-64.1v-1.6h64.1v1.6ZM607.3,337.7h-64.1v-1.6h64.1v1.6ZM607.3,332.9h-64.1v-1.6h64.1v1.6Z"/>
    </g>
    <path class="st0" d="M647.3,325.8h-18.1c-2.8,0-5,2.2-5,5v25.2c0,2.8,2.2,5,5,5h18.1c2.8,0,5-2.2,5-5v-25.2c0-2.8-2.2-5-5-5ZM646.9,355.2h-6.7v-1.8h6.7v1.8ZM646.9,347.5h-6.7v-1.8h6.7v1.8ZM646.9,339.7h-6.7v-1.8h6.7v1.8ZM645.7,334.9h-15c-1.3,0-2.3-1-2.3-2.3s1-2.3,2.3-2.3h15c1.3,0,2.3,1,2.3,2.3s-1,2.3-2.3,2.3ZM636.6,355.3h-6.7v-1.8h6.7v1.8ZM636.6,347.5h-6.7v-1.8h6.7v1.8ZM636.6,339.8h-6.7v-1.8h6.7v1.8Z"/>
  </g>
  <g>
    <ellipse class="st1" cx="30.2" cy="4.4" rx="28.3" ry="2.9"/>
    <g>
      <polygon class="st1" points="20 24.1 20.6 24.4 20.6 23.8 20.2 23.9 20 24.1"/>
      <path class="st1" d="M30.2,9.4c-15.6,0-28.3-1.3-28.3-2.9v35c0,1.6,12.7,2.9,28.3,2.9s28.3-1.3,28.3-2.9V6.5c0,1.6-12.7,2.9-28.3,2.9ZM33.5,19.1c0,.1,0,.2-.1.3-.1,0-.3.2-.4.3-.4.3-.7.5-.8.6l-.9.5.5.9c0,0,0,0,0,.1.1,0,0,.3-.1.3,0,0,0,0-.1,0s-.3-.1-.4-.3l-.5-.9-.5.3,1.1,1.7c0,0,0,0,0,.1s0,.3-.1.3c-.1,0-.2,0-.3,0s-.3-.1-.4-.3l-1.1-1.7-1.9,1,.3.4c0,0,0,0,0,.1s0,.3-.1.3c0,0,0,0-.1,0s-.3,0-.4-.1l-.3-.4-2.3,1.3v.3c0,0,0,0,0,0,0,.1,0,.2,0,.3,0,.2,0,.3,0,.3,0,0,0,0-.1,0q0,0,.1,0c0,0,0,.3,0,.3,0,.2,0,.3,0,.3h0c0,0,0,.4,0,.4l2.3,1.3.3-.4c0,0,.2-.1.4-.1,0,0,0,0,.1,0,0,0,.1.2.1.3,0,0,0,0,0,.1l-.3.4,1.9,1,1.1-1.7c0,0,.2-.1.4-.1s.2,0,.3,0c0,0,.1.2.1.3,0,0,0,0,0,.1l-1.1,1.7.5.3.5-.8c0,0,.2-.1.4-.1s.2,0,.3,0c0,0,.1.2.1.3,0,0,0,0,0,.1l-.5.8.9.5c.2,0,1,.7.4.9,0,.1,0,.2,0,.3h0c0,.1,0,.1-.1.1h-.1c-.1,0-.4,0-.5-.1-.4,0-.8-.3-.9-.3l-.9-.5-.5.9c0,.2-.2.3-.4.3,0,0,0,0-.1,0-.2,0-.3-.2-.3-.3,0,0,0,0,0-.1l.4-.7-.5-.3-1.1,1.7c0,0-.2.1-.4.1s-.2,0-.3,0c0,0-.1-.2-.1-.3,0,0,0,0,0-.1l1.1-1.7-1.9-1-.3.4c0,0-.2.1-.4.1,0,0,0,0-.1,0,0,0-.1-.2-.1-.3,0,0,0,0,0-.1l.3-.4-2.3-1.3h-.3c0,.3,0,.3-.1.3-.1,0-.2,0-.3,0h0c0,0-.1,0-.1,0h0c0,.3,0,.3-.1.4,0,0,0,0-.1,0h-.1l-.3.3v2.4h.4c.3,0,.4.1.4.4s-.2.4-.4.4h-.5v2h2.1c.3,0,.4.1.4.4s-.1.4-.4.4h-2.1v.5h1.1c.3,0,.4.1.4.4h0c0,.3-.3.4-.4.4h-1.1v.9c0,.1-.2,1-.4,1.4-.1.1-.2.3-.3.3-.2,0-.2-.1-.3-.3,0,0-.1-.3-.1-.5,0-.3,0-.8,0-.9v-.9h-1.2c-.3,0-.4-.1-.4-.4s.1-.4.4-.4h1.2v-.6h-2.2c-.3,0-.4-.1-.4-.4s.1-.4.4-.4h1.8v-2h-.5c-.3,0-.4-.1-.4-.4s.1-.4.4-.4h.4v-2.5l-.3-.3h0c-.1,0-.2,0-.3,0,0-.1-.1-.2-.1-.3h0c0-.1,0,0-.1,0h0s0,0-.1,0c0-.1-.1-.2-.1-.3h0c0,0-.4-.1-.4-.1l-2.3,1.3.3.4c0,0,0,0,0,.1s0,.3-.1.3c0,0,0,0-.1,0s-.3,0-.4-.1l-.3-.4-1.9,1,1.1,1.7c0,0,0,0,0,.1s-.1.3-.3.3c0,0,0,0-.1,0s-.3,0-.4-.1l-1.1-1.7-.5.3.5.8c0,0,0,0,0,.1s-.1.3-.3.3c0,0,0,0-.1,0s-.3,0-.4-.1l-.5-.8-.9.5c-.1,0-1.1.3-1.5.4h0c-.1,0-.2,0-.3,0h0c0-.2,0-.3.1-.3.1,0,.3-.2.4-.3.4-.3.7-.5.8-.6l1.4-.7-.5-.9c0,0,0,0,0-.1s.1-.3.3-.3c0,0,0,0,.1,0s.3.1.4.3l.5.9.5-.3-1.1-1.7c0-.1,0-.2,0-.3s.1-.3.3-.3c0,0,0,0,.1,0s.3.1.4.3l1.1,1.7,1.9-1-.3-.4c0,0,0,0,0-.1s0-.3.1-.3c0,0,0,0,.1,0s.3,0,.4.1l.3.4,2.3-1.3v-.3c0,0,0,0,0,0,0-.1,0-.2,0-.3,0-.2,0-.3,0-.3,0,0,0,0,.1,0q0,0-.1,0c0,0,0-.3,0-.3,0-.2,0-.3,0-.3h0c0,0,0-.4,0-.4l-2.3-1.3-.3.4c0,0-.2.1-.4.1,0,0,0,0-.1,0,0,0-.1-.2-.1-.3,0,0,0,0,0-.1l.3-.4-1.9-1-1.1,1.7c0,.2-.2.3-.4.3,0,0,0,0-.1,0-.2,0-.3-.2-.3-.3s0-.2,0-.3l1.1-1.7-.5-.3-.5.8c0,.2-.2.3-.4.3,0,0,0,0-.1,0-.2,0-.3-.2-.3-.3s0-.2,0-.3l.5-.8-.9-.5c-.1,0-.9-.7-1.2-1,0-.1,0-.2,0-.3h0c0-.1,0-.1.1-.1h.1c.1,0,.4,0,.5.1.4,0,.8.3.9.3l.9.5.5-.9c0-.2.2-.3.4-.3s.2,0,.3,0c0,0,.1.2.1.3s0,.2,0,.3l-.5.9.5.3,1.1-1.7c0,0,.2-.1.4-.1s.2,0,.3,0c0,0,.1.2.1.3s0,.2,0,.3l-1.1,1.7,1.9,1,.3-.4c0,0,.2-.1.4-.1,0,0,0,0,.1,0,0,0,.1.2.1.3,0,0,0,0,0,.1l-.3.4,2.3,1.3h.3c0-.3,0-.3.1-.4.1,0,.2,0,.3,0h0c0,0,.1,0,.1,0h0c0-.3,0-.3.1-.4.1,0,.2,0,.3,0h.1l.3-.3v-2.4h-.4c-.3,0-.4-.1-.4-.4s.1-.4.4-.4h.4v-2h-2.1c-.3,0-.4-.1-.4-.4s.1-.4.4-.4h2.5v-.6h-1.1c-.3,0-.4-.1-.4-.4s.1-.4.4-.4h1.1v-.9c0-.1.2-1,.4-1.4.1-.2.2-.3.3-.3.2,0,.2.1.3.3,0,0,.1.3.1.5,0,.3,0,.8,0,.9v1.2h1.2c.3,0,.4.1.4.4s-.1.4-.4.4h-1.2v.4h2.2c.3,0,.4.1.4.4s-.1.4-.4.4h-2.2v2h.5c.3,0,.4.1.4.4s-.1.4-.4.4h-.5v2.5l.3.3h.1c.1,0,.2,0,.3,0,0,.1.1.2.1.3h0c0,.1,0,0,.1,0h0s0,0,.1,0c0,.1.1.2.1.3h0c0,0,.4.1.4.1l2.3-1.3-.3-.4c0,0,0,0,0-.1s0-.3.1-.3c0,0,0,0,.1,0s.3,0,.4.1l.3.4,1.9-1-1.1-1.7c0-.1,0-.2,0-.3s0-.3.1-.3c.1,0,.2,0,.3,0s.3.1.4.3l1.1,1.7.5-.3-.5-.8c0-.1,0-.2,0-.3s.1-.3.3-.3c0,0,0,0,.1,0s.3.1.4.3l.5.8.9-.5c.1,0,1.1-.3,1.5-.4h0c.1,0,.2,0,.3,0h0ZM46,35.3c-.4.3-.7.1-.4-.2,1.2-1.2,4.2-5.3,4.4-6.1,0,0-2.9,4-5.3,5.2-.1,0-.2,0-.1-.1,1.2-1.5,4.2-6.3,4-8.9,0,0-3.1,5.9-5.3,7.8-3.9,3.3-6.3-1.7-4.4-7,.9-2.8,3.8-4.4,4.6-7.6,0,0,.8,1.8,0,4.2-.2.9.5,1.1,1.2.4,1.9-2,2.7-5.4.9-7.9,0,0,6.6,2.9,4.8,11.4,1.5-1.8,1.5-3.9,1.1-5.8,2.7,3.5-.8,12.2-5.3,14.5Z"/>
      <polygon class="st1" points="21.7 26.9 22.1 26.8 22.3 26.6 21.7 26.3 21.7 26.9"/>
      <polygon class="st1" points="19.5 25 19.4 25.4 19.3 25.7 20 25.4 19.5 25"/>
      <polygon class="st1" points="20.3 26.9 20.5 26.9 20.5 26.3 20 26.6 20.3 26.9"/>
      <polygon class="st1" points="21.8 23.8 21.8 24.4 22.3 24.1 22 23.8 21.8 23.8"/>
      <polygon class="st1" points="23 25.7 23.1 25.2 23.1 25 22.5 25.3 23 25.7"/>
    </g>
  </g>
</svg>