<svg #svg xmlns="http://www.w3.org/2000/svg" xml:space="preserve" viewBox="0 0 413 792" [ngClass]="classList" [style.transform-origin]="transformOriginX + '% ' + transformOriginY + '%'">
  <desc>
    A diagram showing a possible HVAC system set up. A central plant contains boiler, pumps, valves, cooling tower, chiller, and thermal storage. The distribution system contains steam traps, AHU, fans, ducts, VAV, terminals, and temperature sensors.
  </desc>
  <g id="hvac">
    <path id="d2-outline" class="st15" [class.active]="active['distribution']" d="M400.5 783.9h-387c-3.1 0-5.8-2.6-5.8-5.8V530.7c0-3.1 2.6-5.8 5.8-5.8h386.9c3.1 0 5.8 2.6 5.8 5.8v247.5c0 3.1-2.5 5.7-5.7 5.7z"/>
    <path id="d1-outline" class="st15" [class.active]="active['distribution']" d="M400.2 512H14c-3.3 0-6-2.8-6-6V278c0-3.3 2.8-6 6-6h386.2c3.3 0 6 2.8 6 6v227.8c0 3.4-2.7 6.2-6 6.2z"/>
    <path id="cp-outline" class="st15" [class.active]="active['cp-outline']" d="M399.7 256H14.4c-3.6 0-6.4-2.9-6.4-6.4V15c0-3.6 2.9-6.4 6.4-6.4h385.3c3.6 0 6.4 2.9 6.4 6.4v234.5c.1 3.6-2.6 6.5-6.4 6.5z"/>
    <g id="pipesall">
      <a id="pipelink" routerLink="/commercial-hvac/distribution/piping">
        <g id="pipes" [class.active]="active['pipes']">
          <polygon class="st16" [class.active]="active['pipes']" points="29.3 88.8 25.1 88.8 25.2 160.5 25.3 323.6 205.1 323.6 205.1 371.8 209.1 371.8 209.1 319.6 29.3 319.6"/>
          <polygon class="st17" points="229.5 169.8 233.5 169.8 231.8 372 228 372"/>
          <polygon class="st18" points="173.7 84.4 170.5 84.4 171.1 298.5 214.4 298.5 214.4 371.8 218.4 371.8 218.4 294.5 175.1 294.5"/>
          <polygon class="st19" points="361.9 170.3 365.9 170.3 365.9 325 241.5 325 241.5 372 237.5 372 237.5 321 361.9 321"/>
          <path class="st17" d="M234.6 141.4h-3.1V79.2c0-1 .7-1.9 1.6-1.9h27.1c.8 0 1.4.7 1.6 1.4h.7c.2 1.2-.5 2.2-1.6 2.2h-24.5c-.8 0-1.6.8-1.6 1.9v58.5l-.2.1z"/>
          <path class="st19" d="M362.6 172.6h3.1V76.3c0-1-.7-1.9-1.6-1.9h-45.6l-.7 3.6h43.1c.8 0 1.6.8 1.6 1.9l.1 92.7z"/>
        </g>
      </a>
    </g>
    <a id="ductlink" routerLink="/commercial-hvac/distribution/ducting">
      <polygon id="duct2" [class.active]="active['duct1']" class="st20" points="329.2 372.7 332.1 390.5 379.2 390.3 378.5 609.1 242.3 608.9 242.3 641 260.1 641 260.1 630.5 336.8 630.5 336.8 641 354.4 641 354.4 630.5 398.1 629.8 398.1 372.7"/>
      <polygon id="duct1" [class.active]="active['duct1']" class="st20" points="324.9 398.2 328.7 416.1 333.8 416 333.8 566.4 53.3 566 53.3 687.9 70.9 687.9 70.9 587.6 146.7 587.6 146.7 687.9 164.3 687.9 164.3 587.6 352.8 587.6 352.8 555.9 352.8 398.2"/>
      <polygon id="duct2-outline" class="st21" points="329.2 372.7 332.1 390.5 379.2 390.3 378.5 609.1 242.3 608.9 242.3 641 260.1 641 260.1 630.5 336.8 630.5 336.8 641 354.4 641 354.4 630.5 398.1 629.8 398.1 372.7"/>
      <polygon id="duct1-outline" class="st21" points="324.9 398.2 328.7 416.1 333.8 416 333.8 566.4 53.3 566 53.3 687.9 70.9 687.9 70.9 587.6 146.7 587.6 146.7 687.9 164.3 687.9 164.3 587.6 352.8 587.6 352.8 555.9 352.8 398.2"/>
      <line id="ductconnectionline2" class="st21" x1="327.4" y1="365.6" x2="332.8" y2="394.7"/>
      <line id="ductconnectionline1" class="st21" x1="323.7" y1="394.1" x2="330.1" y2="423.2"/>
    </a>
    <g id="terminal2all">
      <a id="terminallink2" routerLink="/commercial-hvac/distribution/terminal-units">
        <rect id="terminal2" x="324.4" y="641" class="st22" width="42" height="64.8"/>
        <g class="no-pointer">
          <line class="st23" x1="331.4" y1="670.8" x2="359.2" y2="643.1"/>
          <line class="gray" x1="324.4" y1="683.6" x2="366.3" y2="683.6"/>
          <path class="st18" d="M365.2 697v4c-3.1 0-4.6-3.6-5.7-6.4-.7-1.6-1.6-4.1-2.2-4.1-.8 0-1.7 2.4-2.2 4.1-1 2.9-2.6 6.4-5.7 6.4s-4.6-3.6-5.7-6.4c-.7-1.6-1.6-4.1-2.2-4.1-.8 0-1.7 2.4-2.2 4.1-1 2.9-2.6 6.4-5.7 6.4s-4.6-3.6-5.7-6.4c-.7-1.6-1.6-4.1-2.2-4.1v-4c3.1 0 4.6 3.6 5.7 6.4.7 1.6 1.6 4.1 2.2 4.1.8 0 1.7-2.4 2.2-4.1 1-2.9 2.6-6.4 5.7-6.4s4.6 3.6 5.7 6.4c.7 1.6 1.6 4.1 2.2 4.1.8 0 1.7-2.4 2.2-4.1 1-2.9 2.6-6.4 5.7-6.4s4.6 3.6 5.7 6.4c.5 1.7 1.5 4.1 2.2 4.1z"/>
        </g>
      </a>
    </g>
    <g id="terminal1all">
      <a id="terminallink1" routerLink="/commercial-hvac/distribution/terminal-units">
        <rect id="terminal1" x="228.8" y="641" class="st22" width="42" height="64.8"/>
        <g class="no-pointer">
          <line class="st23" x1="237.9" y1="670.8" x2="265.4" y2="643.1"/>
          <line class="gray" x1="228.8" y1="683.6" x2="270.5" y2="683.6"/>
          <path class="st18" d="M269.6 697v4c-3.1 0-4.6-3.6-5.7-6.4-.7-1.6-1.6-4.1-2.2-4.1-.8 0-1.7 2.4-2.2 4.1-1 2.9-2.6 6.4-5.7 6.4s-4.6-3.6-5.7-6.4c-.7-1.6-1.6-4.1-2.2-4.1-.8 0-1.7 2.4-2.2 4.1-1 2.9-2.6 6.4-5.7 6.4s-4.6-3.6-5.7-6.4c-.7-1.6-1.6-4.1-2.2-4.1v-4c3.1 0 4.6 3.6 5.7 6.4.7 1.6 1.6 4.1 2.2 4.1.8 0 1.7-2.4 2.2-4.1 1-2.9 2.6-6.4 5.7-6.4s4.6 3.6 5.7 6.4c.7 1.6 1.6 4.1 2.2 4.1.8 0 1.7-2.4 2.2-4.1 1-2.9 2.6-6.4 5.7-6.4s4.6 3.6 5.7 6.4c.5 1.7 1.6 4.1 2.2 4.1z"/>
        </g>
      </a>
    </g>
    <g id="vavall">
      <a id="vavlink" routerLink="/commercial-hvac/distribution/vav">
        <rect id="vav" x="248.4" y="552.8" class="st22" width="74.5" height="43.1"/>
        <g class="no-pointer">
          <line class="st25" x1="307.5" y1="557.6" x2="290.9" y2="557.6"/>
          <line class="st25" x1="307.5" y1="564.3" x2="290.9" y2="564.3"/>
          <line class="st25" x1="307.5" y1="571" x2="290.9" y2="571"/>
          <line class="st25" x1="307.5" y1="577.8" x2="290.9" y2="577.8"/>
          <line class="st25" x1="307.5" y1="584.5" x2="290.9" y2="584.5"/>
          <line class="st25" x1="307.5" y1="591.2" x2="290.9" y2="591.2"/>
          <line class="st26" x1="286.6" y1="552.8" x2="286.6" y2="595.7"/>
          <line class="st26" x1="311.8" y1="552.8" x2="311.8" y2="595.7"/>
        </g>
      </a>
    </g>
    <g id="diffuser2all">
      <a id="diffuserlink2" routerLink="/commercial-hvac/distribution/diffusers">
        <g id="diffuser2a">
          <polygon id="diffuser2" [class.active]="active['diffuser2']" class="st22" points="131 704.6 182.4 704.6 164.4 687.7 146.9 687.7"/>
        </g>
      </a>
    </g>
    <a id="diffuserlink1" routerLink="/commercial-hvac/distribution/diffusers">
      <g id="diffuser">
        <polygon id="diffuser1" [class.active]="active['diffuser2']" class="st22" points="37.6 704.9 88.8 704.9 70.9 687.9 53.5 687.9"/>
      </g>
    </a>
    <path id="zone1" class="st22" d="M98.5 771.5H25.3c-2.6 0-4.6-2.1-4.6-4.6v-56.5c0-2.6 2.1-4.6 4.6-4.6h73.2c2.6 0 4.6 2.1 4.6 4.6v56.5c0 2.5-2.1 4.6-4.6 4.6z"/>
    <path id="zone2" class="st22" d="M190.1 771.5h-73.2c-2.6 0-4.6-2.1-4.6-4.6v-56.5c0-2.6 2.1-4.6 4.6-4.6h73.3c2.6 0 4.6 2.1 4.6 4.6v56.5c.1 2.5-1.9 4.6-4.7 4.6z"/>
    <path id="zone3" class="st22" d="M285.9 771.5h-73.3c-2.6 0-4.6-2.1-4.6-4.6v-56.5c0-2.6 2.1-4.6 4.6-4.6h73.3c2.6 0 4.6 2.1 4.6 4.6v56.5c-.1 2.5-2.2 4.6-4.6 4.6z"/>
    <path id="zone4" class="st22" d="M385.2 771.5h-73.3c-2.6 0-4.6-2.1-4.6-4.6v-56.5c0-2.6 2.1-4.6 4.6-4.6h73.3c2.6 0 4.6 2.1 4.6 4.6v56.5c0 2.5-2 4.6-4.6 4.6z"/>
    <g id="zone1-temp">
      <a id="zonecontlink1" routerLink="/commercial-hvac/distribution/sensors-controls">
        <rect id="zone1cont" [class.active]="active['sensors']" x="29.5" y="746" class="st21" width="13.4" height="15.5"/>
        <line class="st21" x1="36.1" y1="771.5" x2="36.1" y2="761.1"/>
        <path class="st27 no-pointer" d="M39.7 751h-2.9v8.2h-1.1V751h-2.9v-1h6.8v1h.1z"/>
      </a>
    </g>
    <g id="zone2-temp">
      <a id="zonecontlink2" routerLink="/commercial-hvac/distribution/sensors-controls">
        <rect id="zone2cont" [class.active]="active['sensors']" x="123.3" y="746.5" class="st21" width="13.4" height="15.5"/>
        <line class="st21" x1="129.7" y1="772" x2="129.7" y2="761.7"/>
        <path class="st27 no-pointer" d="M133.3 751.4h-2.8v8.2h-1.1v-8.2h-2.9v-1h6.8v1z"/>
      </a>
    </g>
    <g id="zone3-temp">
      <a id="zonecontlink3" routerLink="/commercial-hvac/distribution/sensors-controls">
        <rect id="zone3cont" [class.active]="active['sensors']" x="218.4" y="747" class="st21" width="13.4" height="15.5"/>
        <line class="st21" x1="224.8" y1="772.5" x2="224.8" y2="762"/>
        <path class="st27 no-pointer" d="M228.5 751.9h-2.9v8.2h-1.1v-8.2h-2.9v-1h6.8l.1 1z"/>
      </a>
    </g>
    <g id="zone4-temp">
      <a id="zonecontlink4" routerLink="/commercial-hvac/distribution/sensors-controls">
        <rect id="zone4cont" [class.active]="active['sensors']" x="318.2" y="746.5" class="st21" width="13.4" height="15.5"/>
        <line class="st21" x1="324.9" y1="772" x2="324.9" y2="761.7"/>
        <path class="st27 no-pointer" d="M328.4 751.4h-2.9v8.2h-1.1v-8.2h-2.9v-1h6.8l.1 1z"/>
      </a>
    </g>
    <g id="ahu-section">
      <a id="ahu-link" routerLink="/commercial-hvac/distribution/ahu">
        <polygon id="ahu" [class.active]="active['ahu']" class="st22" points="63 371.3 63 414 109.6 414 109.6 434.8 63.1 434.8 63 477.9 321.9 477.9 321.9 434.6 160.6 434.6 160.6 414.7 317.7 414.7 309.9 371"/>
      </a>
      <g id="ahu-front">
        <g class="st21 no-pointer">
          <rect x="225.3" y="434.6" width="45.3" height="44.3"/>
          <rect x="160.3" y="371" width="12.6" height="44.3"/>
          <rect x="173.1" y="371" width="30.7" height="44.3"/>
          <rect x="271.2" y="434.6" width="50.7" height="44.3"/>
          <rect x="225.1" y="371" width="21.4" height="44.3"/>
          <rect x="203.7" y="371" width="21.4" height="44.3"/>
          <rect x="246.5" y="371" width="53.1" height="44.1"/>
          <polygon points="299.6 371 309.9 371 317.7 415.1 299.6 415.1"/>
          <polygon points="63 434.8 63 478.9 115.2 478.9 115.2 478.9 150.3 478.9 160.2 478.9 321.8 478.9 321.8 434.6 160.2 434.6 160.2 371 115.2 371 109.6 371 63 371 63 415.1 109.6 415.1 109.6 434.8"/>
        </g>
      </g>
      <g class="gray no-pointer">
        <line x1="159.6" y1="425.9" x2="109.6" y2="425.9"/>
        <line x1="156.2" y1="421.5" x2="147.1" y2="430.6"/>
        <line x1="145.5" y1="421.5" x2="136.5" y2="430.6"/>
        <line x1="135.2" y1="421.5" x2="126" y2="430.6"/>
        <line x1="124.7" y1="421.5" x2="115.5" y2="430.6"/>
      </g>
      <polyline class="gray" points="160.8 416 172.4 409.4 160.3 402.5 172.6 395.4 160 388.4 172.6 379.8 159.6 372.2"/>
      <g class="gray no-pointer">
        <line x1="104" y1="479.5" x2="104" y2="436.7"/>
        <line x1="108.6" y1="477.3" x2="99.5" y2="468.4"/>
        <line x1="108.6" y1="466.8" x2="99.5" y2="457.8"/>
        <line x1="108.6" y1="456.3" x2="99.5" y2="447.3"/>
        <line x1="108.6" y1="445.9" x2="99.5" y2="436.7"/>
      </g>
      <g class="gray no-pointer">
        <line x1="104" y1="415.4" x2="104" y2="372.7"/>
        <line x1="108.6" y1="402.7" x2="99.5" y2="393.7"/>
        <line x1="108.6" y1="392.3" x2="99.5" y2="383.2"/>
        <line x1="108.6" y1="381.8" x2="99.5" y2="372.7"/>
      </g>
      <a id="fanlink" routerLink="/commercial-hvac/distribution/fans">
        <path id="fan2" [class.active]="active['fan2']" class="st22" d="M244.8 456.6h-8.4c1.1-1.8 1.8-5 1.8-8.8 0-5.6-1.6-10.2-3.6-10.2s-3.6 4.6-3.6 10.2c0 3.9.8 7.2 1.9 9-.3.2-.5.6-.4.6 0 .3.3.8.8.8h.9c-1.4 1.4-2.4 5.2-2.4 9.6 0 5.6 1.6 10.2 3.6 10.2s3.6-4.6 3.6-10.2c0-4.4-1-8.2-2.4-9.6h8.2c.3 0 .8-.3.8-.8 0-.3-.3-.8-.8-.8z"/>
        <path id="fan1" class="st22" [class.active]="active['fan2']" d="M275 394.6c.4-.2.5-.5.4-.7 0-.3-.3-.8-.8-.8h-.7c1.3-1.5 2.2-5.2 2.2-9.4 0-5.6-1.6-10.2-3.6-10.2s-3.6 4.6-3.6 10.2c0 4.2.9 7.9 2.2 9.4h-8c-.3 0-.8.3-.8.8 0 .3.3.8.8.8h8.6c-1.1 1.7-1.9 5.1-1.9 9 0 5.6 1.6 10.2 3.6 10.2s3.6-4.6 3.6-10.2c0-4-.8-7.4-2-9.1z"/>
      </a>
      <line class="st21" x1="309.2" y1="363.2" x2="319.5" y2="422.6"/>
      <path id="heat-coil1" class="st18 no-pointer" d="M211.8 415.4h-4c0-3.4 3.6-4.8 6.4-6 1.6-.7 4.1-1.6 4.1-2.6 0-.8-2.4-1.9-4.1-2.6-2.9-1.2-6.4-2.6-6.4-6s3.6-4.8 6.4-6c1.6-.7 4.1-1.6 4.1-2.6 0-.8-2.4-1.9-4.1-2.6-2.9-1.2-6.4-2.6-6.4-6s3.6-4.8 6.4-6c1.6-.7 4.1-1.6 4.1-2.6h4c0 3.4-3.6 4.8-6.4 6-1.6.7-4.1 1.6-4.1 2.6 0 .8 2.4 1.9 4.1 2.6 2.9 1.2 6.4 2.6 6.4 6s-3.6 4.8-6.4 6c-1.6.7-4.1 1.6-4.1 2.6 0 .8 2.4 1.9 4.1 2.6 2.9 1.2 6.4 2.6 6.4 6s-3.6 4.8-6.4 6c-1.5.9-4.1 1.8-4.1 2.6z"/>
      <path id="cool-coil" class="st19 no-pointer" d="M232.4 415.2h-4c0-3.4 3.6-4.8 6.4-6 1.6-.7 4.1-1.6 4.1-2.6 0-.8-2.4-1.9-4.1-2.6-2.9-1.2-6.4-2.6-6.4-6s3.6-4.8 6.4-6c1.6-.7 4.1-1.6 4.1-2.6 0-.8-2.4-1.9-4.1-2.6-2.9-1.2-6.4-2.6-6.4-6s3.6-4.8 6.4-6c1.6-.7 4.1-1.6 4.1-2.6h4c0 3.4-3.6 4.8-6.4 6-1.6.7-4.1 1.6-4.1 2.6 0 .8 2.4 1.9 4.1 2.6 2.9 1.2 6.4 2.6 6.4 6s-3.6 4.8-6.4 6c-1.6.7-4.1 1.6-4.1 2.6 0 .8 2.4 1.9 4.1 2.6 2.9 1.2 6.4 2.6 6.4 6s-3.6 4.8-6.4 6c-1.7 1-4.1 1.8-4.1 2.6z"/>
    </g>
    <a id="pumplink2" routerLink="/commercial-hvac/central-plant/pump">
      <path id="d-pump2" [class.active]="active['pump']" class="st22" d="M251.9 193.1h-18.1c-.8-.2-1.6-.4-2.4-.4s-1.6.2-2.4.4c-7.4 1.2-12.9 7.6-12.9 15.2 0 8.4 6.9 15.3 15.3 15.3s15.3-6.9 15.3-15.3c0-.8-.2-1.7-.4-2.6h5.4v-12.6h.2z"/>
    </a>
    <a id="pumplink1" routerLink="/commercial-hvac/central-plant/pump">
      <path id="d-pump1" [class.active]="active['pump']" class="st22" d="M47.6 201.9H29.5c-.8-.2-1.6-.4-2.4-.4s-1.6.2-2.4.4h-.2c-7.4 1.2-12.9 7.6-12.9 15.2 0 8.4 6.9 15.3 15.3 15.3 8.6 0 15.3-6.9 15.3-15.3 0-.8-.2-1.7-.4-2.6h5.4v-12.6h.4z"/>
    </a>
    <a id="pumplink3" routerLink="/commercial-hvac/central-plant/pump">
      <path id="cp-pump" [class.active]="active['pump']" class="st22" d="M383.7 86.3h-18.1c-.8-.2-1.6-.4-2.4-.4s-1.6.2-2.4.4h-.2c-7.4 1.2-12.9 7.6-12.9 15.2 0 8.4 6.9 15.3 15.3 15.3 8.6 0 15.3-6.9 15.3-15.3 0-.8-.2-1.7-.4-2.6h5.4l.4-12.6z"/>
    </a>
    <g id="valve1">
      <a id="valve2link" routerLink="/commercial-hvac/distribution/valve">
        <polygon id="cp-valve" class="st22" points="34.1 149.9 20.1 149.9 26.2 160.5 20.1 171.8 34.1 171.8 28 160.5"/>
      </a>
    </g>
    <g id="boiler-temp">
      <a id="boilercontlink" routerLink="/commercial-hvac/central-plant/sensors-controls">
        <rect id="blrcont" [class.active]="active['sensors']" x="118.1" y="19.4" class="st22" width="13.4" height="15.5"/>
        <line class="st21" x1="124.7" y1="44.9" x2="124.7" y2="34.6"/>
        <path class="st27 no-pointer" d="M128.3 24.4h-2.9v8.2h-1.1v-8.2h-2.9v-1h6.8v1h.1z"/>
      </a>
    </g>
    <g id="ahu-temp">
      <a id="ahucontrollink" routerLink="/commercial-hvac/distribution/sensors-controls">
        <rect id="ahucont" [class.active]="active['sensors']" x="76.4" y="346.3" class="st22" width="13.4" height="15.5"/>
        <line class="st21" x1="82.9" y1="371.8" x2="82.9" y2="361.5"/>
        <path class="st27 no-pointer" d="M86.6 351.3h-2.9v8.2h-1.1v-8.2h-2.9v-1h6.8l.1 1z"/>
      </a>
    </g>
    <g id="control">
      <a id="controlcontrol" routerLink="/commercial-hvac/distribution/sensors-controls">
        <rect id="controlcont" [class.active]="active['sensors']" x="266.3" y="346.7" class="st22" width="13.4" height="15.3"/>
        <line class="st21" x1="272.8" y1="372.7" x2="272.8" y2="363"/>
        <path class="st27 no-pointer" d="M272.2 350.3h1.1v9.2h-1.1v-9.2z"/>
      </a>
    </g>
    <g id="tower">
      <a id="tower-link" routerLink="/commercial-hvac/central-plant/cooling-tower">
        <path id="cooltower-outline" [class.active]="active['cooltower-outline']" class="st22" d="M318 89c-.2 1.9-.7 2.6-1.4 2.6h-54.3l-3.4-18.1-9.8-51c-.2-.8.5-1.6 1.4-1.6h78.1c.8 0 1.4.8 1.4.4L318 89z"/>
      </a>
      <line class="st28 no-pointer" x1="253.5" y1="49.3" x2="324.9" y2="49.3"/>
      <g class="no-pointer">
        <path class="st29" d="m272 58.4 3.1-2.6c.4-.4.5-.7.5-1v-4.6"/>
        <line class="st29" x1="278.6" y1="58.4" x2="275.4" y2="55.3"/>
      </g>
      <g class="no-pointer">
        <path class="st29" d="m299.9 57.7 3.1-2.6c.4-.4.5-.7.5-1v-4.6"/>
        <line class="st29" x1="306.5" y1="57.7" x2="303.3" y2="54.6"/>
      </g>
      <path id="t-box" class="st30 no-pointer" d="M292 66.3h-5.4c-.8 0-1.4-.7-1.4-1.4v-4.5c0-.8.7-1.4 1.4-1.4h5.4c.8 0 1.4.7 1.4 1.4v4.5c0 .7-.7 1.4-1.4 1.4z"/>
      <line class="st29 no-pointer" x1="289.2" y1="66.6" x2="289.2" y2="90.1"/>
      <path id="t-water" class="st30 no-pointer" d="M259.6 76.3c-.4-1 .8-1.9 1.9-1.6 4.6 2.2 15.3 5.4 29.3-1.4 0 0 15.5-7.4 29.3-1.4.5.4.8.8.8.4L317.6 89c-.2 1.9-.7 2.4-1.4 2.4l-52.4.2c-.7 0-1.2-.4-1.4-1l-2.8-14.3z"/>
      <g id="fan_2_" class="gray no-pointer">
        <ellipse cx="299.2" cy="33.2" rx="10.2" ry="3.6"/>
        <ellipse cx="279.2" cy="33.9" rx="10.2" ry="3.6"/>
        <path d="M288.2 35.1V23.6c0-.5.5-.8.8-.8.5 0 .8.5.8.8v11.5c0 .5-.5.8-.8.8-.3.2-.8-.1-.8-.8z"/>
      </g>
    </g>
    <a routerLink="/commercial-hvac/central-plant/chiller">
      <path id="chiller" [class.active]="active['chiller']" class="st22" d="M372.3 154.6v-5.2h-7.2V138h-3.4v7.4c-2.1-3.3-5.8-5.8-10.3-7.6-.4-16.7-14.1-22.7-23.3-22.7h-37.2v-7.8h-52V136h52v-7.8H328c.8 0 8.6.4 10 8.1h-81.5c-9.8 0-17.9 4.5-20.9 10.7v-10.8h-6.4v34.1h6.4v-8.8c2.9 6.2 11 10.7 20.9 10.7V187h13.6v-15H323v14.8h13.6V172h5.4c8.8 0 16.4-3.6 19.8-9.1v9.1h3.4v-11.2h7.2v-5.2h-7.2v-1.2l7.1.2z"/>
    </a>
    <a routerLink="/commercial-hvac/central-plant/boiler">
      <path id="boiler" [class.active]="active['boiler']" class="st22" d="M159.5 62.2v5.4h-9C149.5 55 140.2 45 128.8 45H43.5c-7.8 0-14.7 4.6-18.6 11.9h-5.4v33.9h5.4c3.8 7 10.7 11.9 18.6 11.9v14.8h13.6v-14.8H110v14.8h13.6v-14.8h5.4c11 0 20.3-9.5 21.7-21.9h9v4.1h19.8V62.2h-20z"/>
    </a>
    <a id="ductotherlink" routerLink="/commercial-hvac/distribution/ducting">
      <polygon id="ductoutline2" class="st31" points="328.5 372.4 332.6 390.1 379.9 389.9 379.2 608.8 252 608.6 252 640.6 269.8 640.6 269.8 630 337.5 630 337.5 640.6 355.1 640.6 355.1 630 398.8 629.5 398.8 372.4"/>
    </a>
    <g>
      <a routerLink="/commercial-hvac/central-plant/cool-thermal-energy-storage">
        <path id="cooltherm" [class.active]="active['cooltherm']" class="st22" d="M383 248.4h-39.9c-2.1 0-3.7-1.7-3.7-3.7v-49c0-2.1 1.7-3.7 3.7-3.7H383c2.1 0 3.7 1.7 3.7 3.7v49c0 2-1.6 3.7-3.7 3.7z"/>
      </a>
      <path class="no-pointer st32" d="m378.1 220.9-1.2-.7.7-1.2c0-.1.1-.2.1-.2 0-.2-.1-.4-.2-.5-.1 0-.2-.1-.4-.1s-.4.1-.5.2l-.7 1.2-.7-.4 1.5-2.5c0-.1.1-.2.1-.2 0-.2-.1-.4-.2-.5-.1 0-.2-.1-.4-.1s-.4.1-.5.2l-1.5 2.5-2.6-1.5.4-.6c0-.1.1-.2.1-.2 0-.2-.1-.4-.2-.5-.1 0-.2-.1-.2-.1-.2 0-.4.1-.5.2l-.4.6-3.1-1.9-.1-.5.1-.1c.1-.1.1-.2.1-.5 0-.1 0-.4-.1-.5s-.1-.1-.2-.1c.1 0 .1-.1.2-.1.1-.1.1-.2.1-.5 0-.1 0-.2-.1-.4l-.1-.1.1-.4 3.2-1.9.4.6c.1.2.4.2.5.2s.2 0 .2-.1c.2-.1.2-.4.2-.5s0-.2-.1-.2l-.4-.6 2.6-1.5 1.5 2.5c.1.2.4.4.5.4s.2 0 .4-.1.2-.4.2-.5 0-.2-.1-.2l-1.5-2.5.7-.4.7 1.4c.1.2.4.4.5.4s.2 0 .2-.1c.2-.1.4-.4.2-.5 0-.1 0-.2-.1-.2l-.7-1.4 1.2-.7c.1-.1.6-.5 1.1-.9.2-.2.4-.4.6-.5.1-.1.2-.2.2-.4v-.1c-.1-.1-.2-.1-.4-.1h-.1c-.6.1-1.9.5-2.1.6l-1.2.7-.7-1.2c-.1-.2-.4-.4-.5-.4s-.2 0-.2.1c-.2.1-.4.4-.4.5s0 .2.1.4l.7 1.2-.7.4-1.5-2.5c-.1-.2-.4-.4-.5-.4s-.2 0-.4.1-.2.4-.2.5 0 .2.1.4l1.5 2.5-2.6 1.5-.4-.6c-.1-.2-.4-.2-.5-.2s-.2 0-.2.1c-.2.1-.2.4-.2.5s0 .2.1.2l.4.6-3.1 1.9-.5-.1v-.1c0-.1-.1-.2-.2-.4-.1 0-.2-.1-.2-.1h-.1c-.1 0-.2.1-.2.1v-.2c0-.1-.1-.2-.2-.4-.1 0-.2-.1-.4-.1h-.2l-.4-.4V205h.7c.4 0 .6-.2.6-.6 0-.4-.2-.6-.6-.6h-.7v-3h3c.4 0 .6-.2.6-.6 0-.4-.2-.6-.6-.6h-3v-.6h1.6c.4 0 .6-.2.6-.6s-.2-.6-.6-.6h-1.6V196c0-.2 0-.9-.1-1.4 0-.2-.1-.6-.2-.7-.1-.2-.1-.4-.4-.4-.1 0-.2.1-.4.4-.2.6-.5 1.9-.5 2.1v1.4h-1.5c-.4 0-.6.2-.6.6 0 .4.2.6.6.6h1.5v.9h-3.4c-.4 0-.6.2-.6.6 0 .4.2.6.6.6h2.9v3h-.6c-.4 0-.6.2-.6.6 0 .4.2.6.6.6h.6v3.6l-.4.4h-.2c-.1 0-.2 0-.4.1-.1.1-.2.2-.2.4v.2s-.1-.1-.2-.1h-.1c-.1 0-.2 0-.4.1-.1.1-.2.1-.2.4v.1l-.4.1-3.2-1.9.4-.6c0-.1.1-.2.1-.2 0-.2-.1-.4-.2-.5-.1 0-.2-.1-.2-.1-.2 0-.4.1-.5.2l-.4.6-2.6-1.5 1.5-2.5c0-.1.1-.2.1-.4s-.1-.4-.2-.5c-.1 0-.2-.1-.4-.1s-.4.1-.5.2l-1.5 2.5-.7-.4.7-1.4c0-.1.1-.2.1-.4s-.1-.4-.2-.5c-.1 0-.2-.1-.4-.1s-.4.1-.5.4l-.7 1.4-1.2-.7c-.1-.1-.7-.4-1.2-.5-.2-.1-.5-.1-.7-.2h-.2c-.1 0-.2 0-.2.1v.1c0 .1.1.2.1.4.4.5 1.4 1.4 1.6 1.5l1.2.7-.7 1.2c0 .1-.1.2-.1.4s.1.4.4.5c.1 0 .2.1.2.1.2 0 .4-.1.5-.4l.7-1.2.7.4-1.5 2.5c0 .1-.1.2-.1.4s.1.4.4.5c.1 0 .2.1.2.1.2 0 .4-.1.5-.4l1.5-2.5 2.6 1.5-.4.6c0 .1-.1.2-.1.2 0 .2.1.4.2.5.1 0 .2.1.2.1.2 0 .4-.1.5-.2l.4-.6 3.1 1.9.1.5-.1.1c-.1.1-.1.2-.1.5 0 .1 0 .4.1.5s.1.1.2.1c-.1 0-.1.1-.2.1-.1.1-.1.2-.1.5 0 .1 0 .2.1.4l.1.1-.1.4-3.2 1.9-.4-.6c-.1-.2-.4-.2-.5-.2s-.2 0-.2.1c-.2.1-.2.4-.2.5s0 .2.1.2l.4.6-2.6 1.5-1.5-2.5c-.1-.2-.4-.4-.5-.4s-.2 0-.2.1c-.2.1-.4.4-.4.5s0 .2.1.4l1.5 2.5-.7.4-.7-1.4c-.1-.2-.4-.4-.5-.4s-.2 0-.2.1c-.2.1-.4.4-.4.5s0 .2.1.2l.7 1.4-1.9 1c-.1.1-.6.5-1.1.9-.2.2-.4.4-.6.5-.1.1-.2.2-.2.4v.1c.1.1.2.1.4.1h.1c.6-.1 1.9-.5 2.1-.6l1.2-.7.7 1.2c.1.2.4.2.5.2s.2 0 .2-.1c.2-.1.4-.4.4-.5s0-.2-.1-.2l-.7-1.2.7-.4 1.5 2.5c.1.2.4.2.5.2.1 0 .2 0 .2-.1.2-.1.4-.4.4-.5s0-.2-.1-.2l-1.5-2.5 2.6-1.5.4.6c.1.2.4.2.5.2s.2 0 .2-.1c.2-.1.2-.4.2-.5s0-.2-.1-.2l-.4-.6 3.1-1.9.5.1v.1c0 .1.1.2.2.4.1 0 .2.1.2.1h.1c.1 0 .2-.1.2-.1v.2c0 .1.1.2.2.4.1 0 .2.1.4.1h.1l.4.4v3.7h-.6c-.4 0-.6.2-.6.6 0 .4.2.6.6.6h.7v3H359c-.4 0-.6.2-.6.6 0 .4.2.6.6.6h3v.9h-1.6c-.4 0-.6.2-.6.6 0 .4.2.6.6.6h1.6v1.4c0 .2 0 .9.1 1.4 0 .2.1.6.2.7.1.2.1.4.4.4.1 0 .2-.2.4-.4.2-.6.5-1.9.5-2.1V229h1.5c.2 0 .5-.2.6-.5v-.1c0-.4-.2-.6-.6-.6h-1.5v-.8h2.9c.4 0 .6-.2.6-.6 0-.4-.2-.6-.6-.6h-2.9v-3h.7c.2 0 .5-.2.5-.6 0-.4-.2-.6-.6-.6h-.6V218l.4-.4h.2c.1 0 .2 0 .2-.1.1-.1.2-.2.2-.4v-.2s.1.1.2.1h.1c.1 0 .2 0 .4-.1.1-.1.2-.1.2-.4l.4-.1 3.2 1.9-.4.6c0 .1-.1.2-.1.2 0 .2.1.4.2.5.1 0 .2.1.2.1.2 0 .4-.1.5-.2l.4-.6 2.6 1.5-1.5 2.5c0 .1-.1.2-.1.2 0 .2.1.4.2.5.1 0 .2.1.4.1s.4-.1.5-.2l1.5-2.5.7.4-.6 1c0 .1-.1.2-.1.2 0 .2.1.4.4.5.1 0 .2.1.2.1.2 0 .4-.1.5-.4l.7-1.4 1.2.7c.1.1.7.4 1.2.5.2.1.5.1.7.2h.2c.1 0 .2 0 .2-.1v-.1c0-.1-.1-.2-.1-.4.7-.3-.3-1.2-.6-1.3zm-17.1.9zm.1 0zm3.2-6.6-.6.1v-.9l.9.5-.3.3zm-2.5.1-.4-.4.7-.5v1l-.3-.1zm-.1-4.4.6-.1v.9l-.9-.5.3-.3zm2.5-.1.4.4-.7.5v-1l.3.1zm-3.6 2.4.1-.6.7.5-.9.5.1-.4zm5-.3-.1.6-.7-.5.9-.5-.1.4z"/>
    </g>
    <g id="coolvalve">
      <a id="valve1link" routerLink="/commercial-hvac/distribution/valve">
        <polygon id="cp-valve2" class="st22" points="238.2 229.8 224.2 229.8 230.2 240.2 224.5 252.5 238.8 252.5 232.2 240.2"/>
      </a>
    </g>
    <g id="steamtraphot">
      <a id="steamtraplink2" routerLink="/commercial-hvac/distribution/steam-traps">
        <path id="steamtrapht" class="st22" d="M201.4 288.6v-.6c0-.6-.5-1.2-1.2-1.2h-.8l.5-1.3c.4-1.1 0-2.4-1-3l-3.2-2c-.8-.5-1.7-.5-2.5 0l-3.2 2c-1 .6-1.4 1.9-1 3l.5 1.3h-1.2c-.6 0-1.2.5-1.2 1.2v.6c0 .6.5 1.2 1.2 1.2h.4v2h-5.2v-10.9h-6.2v30.4h6.2v-11h3.8l8.5 8.6 3.7-4.2-4.3-4.4h10.1v10.4h6.2v-29.8h-6.2v10.9H200v-2h.2c.6 0 1.2-.6 1.2-1.2z"/>
      </a>
    </g>
    <a routerLink="/commercial-hvac/central-plant/hot-thermal-energy-storage">
      <path id="hottherm" [class.active]="active['hottherm']" class="st22" d="M191.8 182.9h-39.9c-2.1 0-3.7-1.7-3.7-3.7v-49c0-2.1 1.7-3.7 3.7-3.7h39.9c2.1 0 3.7 1.7 3.7 3.7v49c-.1 2-1.6 3.7-3.7 3.7z"/>
      <path class="no-pointer st18" d="M173.3 165.5c7.4-4.2 13.1-19.8 8.7-26.2.6 3.3.7 7.1-1.8 10.4 3-15.3-7.9-20.6-7.9-20.6 2.9 4.5 1.7 10.6-1.5 14.3-1.1 1.2-2.3.9-1.9-.7 1.4-4.4.1-7.6.1-7.6-1.4 5.8-6.1 8.6-7.6 13.7-3.1 9.6.8 18.6 7.3 12.6 3.7-3.5 8.8-14.1 8.8-14.1.3 4.7-4.7 13.3-6.6 16.1-.1.2 0 .3.2.2 4-2.2 8.8-9.4 8.8-9.4-.3 1.5-5.4 8.8-7.3 11-.5.5 0 .8.7.3z"/>
    </a>
    <g id="steamtrapcool">
      <a id="steamtraplink_1_" routerLink="/commercial-hvac/distribution/steam-traps">
        <path id="steamtrap" class="st22" d="M104.5 315.3h.2v2h-5.3v-10.9h-6.2v29.8h6.2v-10.4h10.1l-4.3 4.4 3.7 4.2 8.5-8.6h3.8v11h6.2v-30.4h-6.2v10.9H116v-2h.4c.7 0 1.2-.6 1.2-1.2v-.6c0-.7-.6-1.2-1.2-1.2h-1.2l.5-1.3c.4-1.1 0-2.4-1-3l-3.2-2c-.8-.5-1.7-.5-2.5 0l-3.2 2c-1 .6-1.4 1.9-1 3l.5 1.3h-.8c-.7 0-1.2.6-1.2 1.2v.6c0 .6.6 1.2 1.2 1.2z"/>
      </a>
    </g>
  </g>
  <g id="text">
    <a routerLink="/commercial-hvac/central-plant">
      <text transform="translate(72 23)">CENTRAL PLANT</text>
    </a>
    <g class="label no-pointer">
      <text transform="translate(152.5 309)">Steam Trap</text>
      <text transform="translate(86 77)">Boiler</text>
      <text transform="translate(296 158)">Chiller</text>
      <text transform="translate(290 47)">Cooling Tower</text>
      <text transform="translate(27 220)">Pump</text>
      <text transform="translate(49 163)">Valve</text>
      <text transform="translate(232 211)">Pump</text>
      <text transform="translate(254 245)">Valve</text>
      <text transform="translate(363 242)">Storage</text>
      <text transform="translate(173 175)">Storage</text>
      <text transform="translate(363 104)">Pump</text>
      <text transform="translate(129 395)">AHU</text>
      <text transform="translate(172 580)">Ducts</text>
      <text transform="translate(319 624)">Ducts</text>
      <text transform="translate(265 578)">VAV</text>
      <text transform="translate(63 703)">Diffuser</text>
      <text transform="translate(157 703)">Diffuser</text>
      <text transform="translate(250 682)">Terminal</text>
      <text transform="translate(345 682)">Terminal</text>
      <text transform="translate(86 288)">DISTRIBUTION SYSTEM</text>
      <text transform="translate(86 540)">DISTRIBUTION SYSTEM</text>
      <text transform="translate(287 395)">Fan</text>
      <text transform="translate(257 462)">Fan</text>
      <text transform="translate(135 357)">Sensors & Controls</text>
      <text transform="translate(36 452)">Exhaust Air</text>
      <text transform="translate(36 392)">Outside Air</text>
      <text transform="translate(321 361)">Supply Air</text>
      <text transform="translate(297 456)">Return Air</text>
    </g>
    <g class="st34 no-pointer">
      <polygon points="74.9 459.6 36.2 459.6 36.2 456.6 29.3 460.6 36.2 464.6 36.2 461.6 74.9 461.6"/>
      <polygon points="41.2 397.2 79.9 397.2 79.9 400.2 86.8 396.2 79.9 392.2 79.9 395.2 41.2 395.2"/>
      <polygon points="304.6 381.2 343.3 381.2 343.3 384.1 350.2 380.2 343.3 376.2 343.3 379.2 304.6 379.2"/>
      <polygon points="300.9 407.7 339.6 407.7 339.6 410.7 346.5 406.7 339.6 402.7 339.6 405.7 300.9 405.7"/>
      <polygon points="329.3 460.9 290.6 460.9 290.6 457.9 283.7 461.9 290.6 465.9 290.6 462.9 329.3 462.9"/>
    </g>
  </g>
</svg>
